<?xml version="1.0" encoding="UTF-8"?>
<!DOCTYPE svg PUBLIC "-//W3C//DTD SVG 1.1//EN" "http://www.w3.org/Graphics/SVG/1.1/DTD/svg11.dtd">
<svg xmlns="http://www.w3.org/2000/svg" version="1.1" width="500px" height="375px" style="shape-rendering:geometricPrecision; text-rendering:geometricPrecision; image-rendering:optimizeQuality; fill-rule:evenodd; clip-rule:evenodd" xmlns:xlink="http://www.w3.org/1999/xlink">
<g><path style="opacity:0.004" fill="#000000" d="M 237.5,46.5 C 238.833,47.1667 238.833,47.1667 237.5,46.5 Z"/></g>
<g><path style="opacity:0.176" fill="#7e8177" d="M 287.5,45.5 C 293.232,45.2832 298.899,45.7832 304.5,47C 305.833,48.3333 307.167,49.6667 308.5,51C 308.272,51.3988 307.938,51.5654 307.5,51.5C 303.927,47.9978 299.594,46.6644 294.5,47.5C 291.772,47.8294 289.438,47.1628 287.5,45.5 Z"/></g>
<g><path style="opacity:0.055" fill="#1f1f1e" d="M 252.5,49.5 C 251.167,49.5 249.833,49.5 248.5,49.5C 248.5,50.5 248.5,51.5 248.5,52.5C 247.167,52.5 245.833,52.5 244.5,52.5C 244.712,50.6159 245.712,49.2826 247.5,48.5C 246.687,47.1861 245.687,46.0195 244.5,45C 245.793,44.51 247.127,44.3433 248.5,44.5C 248.5,45.5 248.5,46.5 248.5,47.5C 250.38,47.2291 251.713,47.8958 252.5,49.5 Z"/></g>
<g><path style="opacity:1" fill="#0655f9" d="M 298.5,60.5 C 295.179,60.8425 291.846,61.1759 288.5,61.5C 290.021,63.6214 292.021,65.1214 294.5,66C 295.766,66.3095 296.933,66.8095 298,67.5C 298.333,67.1667 298.667,66.8333 299,66.5C 298.325,68.2719 298.491,70.1052 299.5,72C 299.156,73.3651 298.489,74.5318 297.5,75.5C 298.025,76.1924 298.692,76.6924 299.5,77C 296.076,77.7466 292.743,77.58 289.5,76.5C 291.32,75.9373 292.653,74.7706 293.5,73C 291.44,70.5074 289.94,67.674 289,64.5C 286.262,63.5183 283.428,62.8516 280.5,62.5C 280.5,60.1667 280.5,57.8333 280.5,55.5C 277.753,55.8134 275.086,55.48 272.5,54.5C 271.359,53.5745 271.359,52.7412 272.5,52C 271.603,49.8735 270.269,49.3735 268.5,50.5C 268.709,51.086 269.043,51.586 269.5,52C 268.134,54.9973 267.467,58.164 267.5,61.5C 265.181,62.167 262.847,62.3336 260.5,62C 261.649,60.3963 261.649,58.7297 260.5,57C 263.807,56.7276 265.473,54.561 265.5,50.5C 263.5,50.5 261.5,50.5 259.5,50.5C 258.745,53.5116 257.412,56.1783 255.5,58.5C 256.675,58.281 257.675,58.6143 258.5,59.5C 257.135,60.4556 255.635,61.1223 254,61.5C 252.34,60.1709 250.507,59.1709 248.5,58.5C 246.889,59.3202 246.222,60.6536 246.5,62.5C 247.5,62.5 248.5,62.5 249.5,62.5C 249.321,64.9541 249.987,67.1208 251.5,69C 249.199,71.1558 246.533,72.8224 243.5,74C 247.468,74.9418 251.468,75.7751 255.5,76.5C 251.452,77.4016 247.785,79.0682 244.5,81.5C 243.571,82.6888 243.238,84.0222 243.5,85.5C 242.833,85.5 242.167,85.5 241.5,85.5C 235.857,81.4115 236.524,78.5781 243.5,77C 241.5,76.1667 239.5,75.3333 237.5,74.5C 237.069,73.7065 236.735,72.8732 236.5,72C 237.482,71.6192 238.148,70.7859 238.5,69.5C 238.098,67.6998 237.431,66.0332 236.5,64.5C 237.999,63.3218 238.999,61.6551 239.5,59.5C 241.261,58.9649 242.594,57.9649 243.5,56.5C 247.825,54.4852 252.159,52.3186 256.5,50C 258.134,49.5065 259.801,49.3398 261.5,49.5C 270.806,48.4459 280.139,48.2792 289.5,49C 295.214,50.5136 300.881,52.3469 306.5,54.5C 305.913,59.0719 303.246,61.0719 298.5,60.5 Z"/></g>
<g><path style="opacity:0.016" fill="#121212" d="M 225.5,48.5 C 226.5,48.5 227.5,48.5 228.5,48.5C 228.5,49.5 228.5,50.5 228.5,51.5C 225.433,51.8795 224.433,50.8795 225.5,48.5 Z"/></g>
<g><path style="opacity:1" fill="#114cfa" d="M 289.5,76.5 C 281.803,77.4206 274.137,78.5873 266.5,80C 267.641,82.2237 266.974,83.7237 264.5,84.5C 262.956,84.7031 261.622,85.3698 260.5,86.5C 254.896,85.5456 249.229,85.2123 243.5,85.5C 243.238,84.0222 243.571,82.6888 244.5,81.5C 247.785,79.0682 251.452,77.4016 255.5,76.5C 251.468,75.7751 247.468,74.9418 243.5,74C 246.533,72.8224 249.199,71.1558 251.5,69C 249.987,67.1208 249.321,64.9541 249.5,62.5C 248.5,62.5 247.5,62.5 246.5,62.5C 246.222,60.6536 246.889,59.3202 248.5,58.5C 250.507,59.1709 252.34,60.1709 254,61.5C 255.635,61.1223 257.135,60.4556 258.5,59.5C 257.675,58.6143 256.675,58.281 255.5,58.5C 257.412,56.1783 258.745,53.5116 259.5,50.5C 261.5,50.5 263.5,50.5 265.5,50.5C 265.473,54.561 263.807,56.7276 260.5,57C 261.649,58.7297 261.649,60.3963 260.5,62C 262.847,62.3336 265.181,62.167 267.5,61.5C 267.467,58.164 268.134,54.9973 269.5,52C 269.043,51.586 268.709,51.086 268.5,50.5C 270.269,49.3735 271.603,49.8735 272.5,52C 271.359,52.7412 271.359,53.5745 272.5,54.5C 275.086,55.48 277.753,55.8134 280.5,55.5C 280.5,57.8333 280.5,60.1667 280.5,62.5C 283.428,62.8516 286.262,63.5183 289,64.5C 289.94,67.674 291.44,70.5074 293.5,73C 292.653,74.7706 291.32,75.9373 289.5,76.5 Z"/></g>
<g><path style="opacity:0.047" fill="#0e0e0e" d="M 171.5,43.5 C 173.862,45.919 174.862,48.919 174.5,52.5C 173.5,52.5 172.5,52.5 171.5,52.5C 171.5,49.5 171.5,46.5 171.5,43.5 Z"/></g>
<g><path style="opacity:0.03" fill="#0b0b0b" d="M 209.5,52.5 C 211.346,52.2222 212.68,52.8888 213.5,54.5C 212.311,55.4287 210.978,55.762 209.5,55.5C 209.5,54.5 209.5,53.5 209.5,52.5 Z"/></g>
<g><path style="opacity:0.227" fill="#464646" d="M 244.5,52.5 C 243.232,55.3671 241.232,56.0337 238.5,54.5C 235.143,55.7218 232.31,57.7218 230,60.5C 229.536,59.9056 229.369,59.2389 229.5,58.5C 231.151,57.0299 232.985,55.6966 235,54.5C 236.666,55.3402 236.833,54.8402 235.5,53C 236.047,52.0754 236.713,51.2421 237.5,50.5C 239.13,53.5985 241.463,54.2651 244.5,52.5 Z"/></g>
<g><path style="opacity:0.306" fill="#a9b3c5" d="M 294.5,47.5 C 299.594,46.6644 303.927,47.9978 307.5,51.5C 308.189,52.7736 309.023,52.7736 310,51.5C 311.775,53.3945 313.775,55.0611 316,56.5C 317.14,53.9824 318.306,53.9824 319.5,56.5C 318.833,56.5 318.5,56.8333 318.5,57.5C 320.498,59.5998 322.665,61.5998 325,63.5C 325.49,64.7932 325.657,66.1266 325.5,67.5C 322,64.1691 318.334,61.0024 314.5,58C 307.832,54.1692 301.165,50.6692 294.5,47.5 Z"/></g>
<g><path style="opacity:0.129" fill="#444443" d="M 228.5,59.5 C 224.159,61.0082 219.826,62.6748 215.5,64.5C 215.953,63.5416 216.619,62.7083 217.5,62C 220.72,61.2837 223.72,60.117 226.5,58.5C 227.183,58.8627 227.85,59.1961 228.5,59.5 Z"/></g>
<g><path style="opacity:0.961" fill="#b3bbc9" d="M 283.5,45.5 C 276.659,46.4043 269.659,47.2376 262.5,48C 261.944,48.3826 261.611,48.8826 261.5,49.5C 259.801,49.3398 258.134,49.5065 256.5,50C 252.159,52.3186 247.825,54.4852 243.5,56.5C 236.921,58.7894 230.588,61.6228 224.5,65C 212.418,68.1555 200.085,70.4888 187.5,72C 178.367,74.7268 170.367,79.2268 163.5,85.5C 161.167,87.5 158.833,89.5 156.5,91.5C 156.5,90.5 156.5,89.5 156.5,88.5C 156.5,88.1667 156.5,87.8333 156.5,87.5C 159.969,85.5286 162.969,83.0286 165.5,80C 168.167,78.6667 170.833,77.3333 173.5,76C 174.999,75.1618 175.332,74.3285 174.5,73.5C 175.209,72.596 176.209,72.2627 177.5,72.5C 178.251,73.5735 179.251,73.7401 180.5,73C 181.955,71.3743 183.622,70.2076 185.5,69.5C 188.162,68.5014 190.828,67.5014 193.5,66.5C 195.321,66.7384 197.155,66.7384 199,66.5C 199.464,65.9056 199.631,65.2389 199.5,64.5C 200.959,64.4326 202.292,64.7659 203.5,65.5C 204.735,65.2786 205.735,64.6119 206.5,63.5C 209.405,65.6324 212.405,65.9657 215.5,64.5C 219.826,62.6748 224.159,61.0082 228.5,59.5C 228.5,58.8333 228.833,58.5 229.5,58.5C 229.369,59.2389 229.536,59.9056 230,60.5C 232.31,57.7218 235.143,55.7218 238.5,54.5C 241.232,56.0337 243.232,55.3671 244.5,52.5C 245.833,52.5 247.167,52.5 248.5,52.5C 248.5,51.5 248.5,50.5 248.5,49.5C 249.833,49.5 251.167,49.5 252.5,49.5C 257.466,47.5119 262.132,45.6786 266.5,44C 265.5,43.6667 264.5,43.3333 263.5,43C 269.833,42.3333 276.167,42.3333 282.5,43C 281.434,44.159 281.767,44.9924 283.5,45.5 Z"/></g>
<g><path style="opacity:0.071" fill="#676e73" d="M 319.5,56.5 C 322.632,58.1356 325.299,60.3022 327.5,63C 327.167,63.3333 326.833,63.6667 326.5,64C 327.867,66.3015 328.534,68.8015 328.5,71.5C 326.738,70.7377 325.738,69.4044 325.5,67.5C 325.657,66.1266 325.49,64.7932 325,63.5C 322.665,61.5998 320.498,59.5998 318.5,57.5C 319.167,57.5 319.5,57.1667 319.5,56.5 Z"/></g>
<g><path style="opacity:0.004" fill="#353634" d="M 215.5,64.5 C 212.405,65.9657 209.405,65.6324 206.5,63.5C 205.735,64.6119 204.735,65.2786 203.5,65.5C 203.238,64.0222 203.571,62.6888 204.5,61.5C 206.776,62.2132 209.109,62.7132 211.5,63C 210.833,63.3333 210.167,63.6667 209.5,64C 211.473,64.4955 213.473,64.6621 215.5,64.5 Z"/></g>
<g><path style="opacity:1" fill="#0b59f8" d="M 298.5,60.5 C 297.093,63.5882 297.926,64.5882 301,63.5C 305.171,64.0768 309.338,64.7435 313.5,65.5C 312.265,69.786 313.598,73.1193 317.5,75.5C 319.445,68.9764 320.279,68.9764 320,75.5C 323.749,78.2049 326.249,81.8715 327.5,86.5C 328.167,85.8333 328.833,85.1667 329.5,84.5C 330.665,85.4911 331.832,86.4911 333,87.5C 333.945,87.0946 334.612,86.428 335,85.5C 336.158,89.0299 336.992,92.6966 337.5,96.5C 339.304,97.7681 341.304,98.4348 343.5,98.5C 342.196,103.257 343.53,107.257 347.5,110.5C 348.192,109.975 348.692,109.308 349,108.5C 348.65,113.388 350.817,116.055 355.5,116.5C 356.344,118.843 357.344,121.176 358.5,123.5C 358.728,125.355 358.061,126.188 356.5,126C 350.103,121.447 344.103,116.28 338.5,110.5C 336.51,109.502 334.51,108.502 332.5,107.5C 331.479,108.002 331.312,108.668 332,109.5C 335.01,112.343 337.843,115.343 340.5,118.5C 338.202,117.69 335.868,116.856 333.5,116C 331.715,113.656 330.382,111.156 329.5,108.5C 327.784,108.629 326.117,108.962 324.5,109.5C 324.66,107.801 324.494,106.134 324,104.5C 321.69,102.863 320.19,100.696 319.5,98C 315.452,96.2622 311.452,94.4289 307.5,92.5C 306.252,88.5823 303.585,86.5823 299.5,86.5C 299.5,85.5 299.5,84.5 299.5,83.5C 292.99,81.5656 286.323,81.0656 279.5,82C 277.113,83.8916 274.447,85.0583 271.5,85.5C 271.167,85.5 270.833,85.5 270.5,85.5C 268.265,85.7947 266.265,85.4614 264.5,84.5C 266.974,83.7237 267.641,82.2237 266.5,80C 274.137,78.5873 281.803,77.4206 289.5,76.5C 292.743,77.58 296.076,77.7466 299.5,77C 298.692,76.6924 298.025,76.1924 297.5,75.5C 298.489,74.5318 299.156,73.3651 299.5,72C 298.491,70.1052 298.325,68.2719 299,66.5C 298.667,66.8333 298.333,67.1667 298,67.5C 296.933,66.8095 295.766,66.3095 294.5,66C 292.021,65.1214 290.021,63.6214 288.5,61.5C 291.846,61.1759 295.179,60.8425 298.5,60.5 Z"/></g>
<g><path style="opacity:0.012" fill="#2e2e2e" d="M 199.5,64.5 C 199.631,65.2389 199.464,65.9056 199,66.5C 197.155,66.7384 195.321,66.7384 193.5,66.5C 193.81,65.2617 194.31,65.2617 195,66.5C 195.49,65.2068 195.657,63.8734 195.5,62.5C 197.199,62.5271 198.533,63.1938 199.5,64.5 Z"/></g>
<g><path style="opacity:1" fill="#185aeb" d="M 283.5,45.5 C 284.833,45.5 286.167,45.5 287.5,45.5C 289.438,47.1628 291.772,47.8294 294.5,47.5C 301.165,50.6692 307.832,54.1692 314.5,58C 318.334,61.0024 322,64.1691 325.5,67.5C 325.738,69.4044 326.738,70.7377 328.5,71.5C 332.452,77.3642 336.452,83.3642 340.5,89.5C 343.433,95.7141 347.1,101.381 351.5,106.5C 351.5,106.833 351.5,107.167 351.5,107.5C 353.105,110.378 354.439,113.378 355.5,116.5C 350.817,116.055 348.65,113.388 349,108.5C 348.692,109.308 348.192,109.975 347.5,110.5C 343.53,107.257 342.196,103.257 343.5,98.5C 341.304,98.4348 339.304,97.7681 337.5,96.5C 336.992,92.6966 336.158,89.0299 335,85.5C 334.612,86.428 333.945,87.0946 333,87.5C 331.832,86.4911 330.665,85.4911 329.5,84.5C 328.833,85.1667 328.167,85.8333 327.5,86.5C 326.249,81.8715 323.749,78.2049 320,75.5C 320.279,68.9764 319.445,68.9764 317.5,75.5C 313.598,73.1193 312.265,69.786 313.5,65.5C 309.338,64.7435 305.171,64.0768 301,63.5C 297.926,64.5882 297.093,63.5882 298.5,60.5C 303.246,61.0719 305.913,59.0719 306.5,54.5C 300.881,52.3469 295.214,50.5136 289.5,49C 280.139,48.2792 270.806,48.4459 261.5,49.5C 261.611,48.8826 261.944,48.3826 262.5,48C 269.659,47.2376 276.659,46.4043 283.5,45.5 Z"/></g>
<g><path style="opacity:0.004" fill="#000000" d="M 329.5,69.5 C 330.833,70.1667 330.833,70.1667 329.5,69.5 Z"/></g>
<g><path style="opacity:1" fill="#2264f8" d="M 236.5,64.5 C 237.431,66.0332 238.098,67.6998 238.5,69.5C 238.148,70.7859 237.482,71.6192 236.5,72C 236.735,72.8732 237.069,73.7065 237.5,74.5C 239.5,75.3333 241.5,76.1667 243.5,77C 236.524,78.5781 235.857,81.4115 241.5,85.5C 240.5,85.5 239.5,85.5 238.5,85.5C 236.473,85.3379 234.473,85.5045 232.5,86C 228.921,90.5325 224.254,92.6992 218.5,92.5C 218.5,92.1667 218.5,91.8333 218.5,91.5C 220.458,87.4732 223.792,85.3065 228.5,85C 227.228,82.9555 227.561,81.1222 229.5,79.5C 228.91,78.2011 227.91,77.3678 226.5,77C 228.116,76.3848 229.449,75.3848 230.5,74C 231.793,73.51 233.127,73.3433 234.5,73.5C 234.5,72.5 234.5,71.5 234.5,70.5C 227.471,70.0288 221.137,71.8622 215.5,76C 213.527,76.4955 211.527,76.6621 209.5,76.5C 209.67,77.8221 209.337,78.9887 208.5,80C 205.94,80.3838 203.606,81.2171 201.5,82.5C 203.801,80.3405 206.134,78.1738 208.5,76C 210.852,75.7599 212.852,74.9265 214.5,73.5C 220.957,68.6769 228.124,64.6769 236,61.5C 236.5,61.8333 237,62.1667 237.5,62.5C 236.624,63.2508 235.624,63.7508 234.5,64C 235.094,64.4643 235.761,64.631 236.5,64.5 Z"/></g>
<g><path style="opacity:0.169" fill="#2d2c2b" d="M 185.5,69.5 C 183.622,70.2076 181.955,71.3743 180.5,73C 179.251,73.7401 178.251,73.5735 177.5,72.5C 179.352,71.4823 181.019,70.1489 182.5,68.5C 183.417,69.1272 184.417,69.4606 185.5,69.5 Z"/></g>
<g><path style="opacity:1" fill="#3074f9" d="M 218.5,91.5 C 216.784,91.3713 215.117,91.038 213.5,90.5C 214.456,89.3406 215.456,88.1739 216.5,87C 214.945,84.6692 215.279,82.6692 217.5,81C 216.271,80.2189 214.938,79.7189 213.5,79.5C 208.874,81.262 204.208,82.5954 199.5,83.5C 199.842,82.6618 200.508,82.3284 201.5,82.5C 203.606,81.2171 205.94,80.3838 208.5,80C 209.337,78.9887 209.67,77.8221 209.5,76.5C 211.527,76.6621 213.527,76.4955 215.5,76C 221.137,71.8622 227.471,70.0288 234.5,70.5C 234.5,71.5 234.5,72.5 234.5,73.5C 233.127,73.3433 231.793,73.51 230.5,74C 229.449,75.3848 228.116,76.3848 226.5,77C 227.91,77.3678 228.91,78.2011 229.5,79.5C 227.561,81.1222 227.228,82.9555 228.5,85C 223.792,85.3065 220.458,87.4732 218.5,91.5 Z"/></g>
<g><path style="opacity:1" fill="#0e34c2" d="M 243.5,56.5 C 242.594,57.9649 241.261,58.9649 239.5,59.5C 238.999,61.6551 237.999,63.3218 236.5,64.5C 235.761,64.631 235.094,64.4643 234.5,64C 235.624,63.7508 236.624,63.2508 237.5,62.5C 237,62.1667 236.5,61.8333 236,61.5C 228.124,64.6769 220.957,68.6769 214.5,73.5C 206.649,73.4551 200.315,76.4551 195.5,82.5C 192.497,83.0851 189.497,83.7518 186.5,84.5C 186.833,85.1667 187.167,85.8333 187.5,86.5C 185.041,87.791 183.541,89.791 183,92.5C 180.347,94.4916 177.514,96.1582 174.5,97.5C 172.216,96.3866 169.883,95.3866 167.5,94.5C 169.071,92.585 171.071,91.585 173.5,91.5C 173.5,92.8333 173.5,94.1667 173.5,95.5C 174.5,95.5 175.5,95.5 176.5,95.5C 176.338,93.4727 176.505,91.4727 177,89.5C 177.388,88.572 178.055,87.9054 179,87.5C 182.547,88.7928 183.047,88.1261 180.5,85.5C 182.756,84.5791 183.756,82.9124 183.5,80.5C 188.017,80.5315 192.017,79.1981 195.5,76.5C 191.856,75.4201 188.19,74.9201 184.5,75C 185.167,75.6667 185.833,76.3333 186.5,77C 184.382,77.2602 182.716,78.2602 181.5,80C 179.189,79.8446 176.856,79.8446 174.5,80C 174.043,80.414 173.709,80.914 173.5,81.5C 175.167,82.1667 176.833,82.8333 178.5,83.5C 175.567,86.7058 171.901,88.7058 167.5,89.5C 167.5,88.1667 167.5,86.8333 167.5,85.5C 166.167,85.5 164.833,85.5 163.5,85.5C 170.367,79.2268 178.367,74.7268 187.5,72C 200.085,70.4888 212.418,68.1555 224.5,65C 230.588,61.6228 236.921,58.7894 243.5,56.5 Z"/></g>
<g><path style="opacity:0.024" fill="#292927" d="M 174.5,73.5 C 175.332,74.3285 174.999,75.1618 173.5,76C 170.833,77.3333 168.167,78.6667 165.5,80C 162.969,83.0286 159.969,85.5286 156.5,87.5C 156.369,86.7611 156.536,86.0944 157,85.5C 160.048,83.9036 162.548,81.7369 164.5,79C 167.723,76.9377 171.057,75.1044 174.5,73.5 Z"/></g>
<g><path style="opacity:1" fill="#4a82fa" d="M 213.5,90.5 C 208.757,92.7443 204.757,95.911 201.5,100C 198.041,100.984 194.708,102.15 191.5,103.5C 192.75,101.068 194.25,98.7343 196,96.5C 196.497,94.1902 196.663,91.8568 196.5,89.5C 198.857,89.6633 201.19,89.4966 203.5,89C 204.357,88.3109 205.023,87.4776 205.5,86.5C 204.635,86.4361 203.635,86.1027 202.5,85.5C 200.224,86.2132 197.891,86.7132 195.5,87C 192.056,88.7271 189.056,90.8938 186.5,93.5C 187.614,92.1147 188.614,90.6147 189.5,89C 192.78,86.8716 196.113,85.0383 199.5,83.5C 204.208,82.5954 208.874,81.262 213.5,79.5C 214.938,79.7189 216.271,80.2189 217.5,81C 215.279,82.6692 214.945,84.6692 216.5,87C 215.456,88.1739 214.456,89.3406 213.5,90.5 Z"/></g>
<g><path style="opacity:0.78" fill="#888e90" d="M 328.5,71.5 C 332.78,71.7794 335.113,74.1127 335.5,78.5C 339.974,82.5601 343.641,87.2268 346.5,92.5C 348.021,94.2909 349.854,95.6242 352,96.5C 352.47,100.115 353.637,103.449 355.5,106.5C 354.662,106.842 354.328,107.508 354.5,108.5C 353.609,107.89 352.609,107.557 351.5,107.5C 351.5,107.167 351.5,106.833 351.5,106.5C 350.258,100.398 347.424,95.0643 343,90.5C 342.329,89.7476 341.496,89.4142 340.5,89.5C 336.452,83.3642 332.452,77.3642 328.5,71.5 Z"/></g>
<g><path style="opacity:1" fill="#0631d7" d="M 214.5,73.5 C 212.852,74.9265 210.852,75.7599 208.5,76C 206.134,78.1738 203.801,80.3405 201.5,82.5C 200.508,82.3284 199.842,82.6618 199.5,83.5C 196.113,85.0383 192.78,86.8716 189.5,89C 188.614,90.6147 187.614,92.1147 186.5,93.5C 184.63,96.0248 182.13,97.6915 179,98.5C 177.231,101.706 175.731,105.039 174.5,108.5C 173.349,110.779 172.349,113.112 171.5,115.5C 171.808,113.076 171.474,110.743 170.5,108.5C 169.824,109.602 169.158,110.602 168.5,111.5C 170.093,107.297 171.426,102.964 172.5,98.5C 171.5,98.5 170.5,98.5 169.5,98.5C 169.884,100.665 169.217,102.332 167.5,103.5C 165.717,101.977 165.051,99.9775 165.5,97.5C 163.446,97.3653 161.779,98.032 160.5,99.5C 160.656,96.9339 160.322,94.4339 159.5,92C 161.07,89.9409 162.403,87.7742 163.5,85.5C 164.833,85.5 166.167,85.5 167.5,85.5C 167.5,86.8333 167.5,88.1667 167.5,89.5C 171.901,88.7058 175.567,86.7058 178.5,83.5C 176.833,82.8333 175.167,82.1667 173.5,81.5C 173.709,80.914 174.043,80.414 174.5,80C 176.856,79.8446 179.189,79.8446 181.5,80C 182.716,78.2602 184.382,77.2602 186.5,77C 185.833,76.3333 185.167,75.6667 184.5,75C 188.19,74.9201 191.856,75.4201 195.5,76.5C 192.017,79.1981 188.017,80.5315 183.5,80.5C 183.756,82.9124 182.756,84.5791 180.5,85.5C 183.047,88.1261 182.547,88.7928 179,87.5C 178.055,87.9054 177.388,88.572 177,89.5C 176.505,91.4727 176.338,93.4727 176.5,95.5C 175.5,95.5 174.5,95.5 173.5,95.5C 173.5,94.1667 173.5,92.8333 173.5,91.5C 171.071,91.585 169.071,92.585 167.5,94.5C 169.883,95.3866 172.216,96.3866 174.5,97.5C 177.514,96.1582 180.347,94.4916 183,92.5C 183.541,89.791 185.041,87.791 187.5,86.5C 187.167,85.8333 186.833,85.1667 186.5,84.5C 189.497,83.7518 192.497,83.0851 195.5,82.5C 200.315,76.4551 206.649,73.4551 214.5,73.5 Z"/></g>
<g><path style="opacity:0.227" fill="#393939" d="M 156.5,87.5 C 156.5,87.8333 156.5,88.1667 156.5,88.5C 152.082,90.9178 148.749,94.2511 146.5,98.5C 147.795,92.8653 151.128,89.1987 156.5,87.5 Z"/></g>
<g><path style="opacity:1" fill="#7d4afa" d="M 264.5,84.5 C 266.265,85.4614 268.265,85.7947 270.5,85.5C 267.993,87.9445 264.993,89.6112 261.5,90.5C 259.874,90.9383 258.207,91.2716 256.5,91.5C 255.006,91.2908 253.839,90.6241 253,89.5C 248.414,92.6972 243.247,94.5306 237.5,95C 234.829,96.25 232.663,98.0833 231,100.5C 231.077,99.2624 230.911,98.2624 230.5,97.5C 229.158,99.0049 227.492,99.6715 225.5,99.5C 224.85,97.5648 224.517,95.5648 224.5,93.5C 226.144,93.2865 227.644,93.6198 229,94.5C 231.294,90.4612 234.461,87.4612 238.5,85.5C 239.5,85.5 240.5,85.5 241.5,85.5C 242.167,85.5 242.833,85.5 243.5,85.5C 249.229,85.2123 254.896,85.5456 260.5,86.5C 261.622,85.3698 262.956,84.7031 264.5,84.5 Z"/></g>
<g><path style="opacity:1" fill="#bb17ed" d="M 274.5,99.5 C 270.988,98.9455 267.988,99.6122 265.5,101.5C 258.725,101.286 252.058,101.953 245.5,103.5C 242.375,102.9 242.042,101.733 244.5,100C 249.877,97.4972 255.21,94.9972 260.5,92.5C 267.639,90.618 273.639,92.4513 278.5,98C 276.942,98.21 275.609,98.71 274.5,99.5 Z"/></g>
<g><path style="opacity:1" fill="#3640cc" d="M 163.5,85.5 C 162.403,87.7742 161.07,89.9409 159.5,92C 160.322,94.4339 160.656,96.9339 160.5,99.5C 159.883,99.6107 159.383,99.944 159,100.5C 158.882,103.371 158.216,106.038 157,108.5C 156.921,104.128 157.421,99.7942 158.5,95.5C 157.635,94.4173 156.635,94.2506 155.5,95C 154.575,98.8049 153.575,102.638 152.5,106.5C 151.349,107.731 150.183,107.731 149,106.5C 148.376,108.464 148.876,110.131 150.5,111.5C 149.675,112.386 148.675,112.719 147.5,112.5C 146.833,114.833 146.167,117.167 145.5,119.5C 143.029,128.733 142.862,138.067 145,147.5C 146.085,148.736 146.918,150.069 147.5,151.5C 146.186,153.915 145.519,156.748 145.5,160C 145.933,166.165 146.267,172.332 146.5,178.5C 142.883,158.8 141.717,138.8 143,118.5C 145.696,108.566 150.196,99.5658 156.5,91.5C 158.833,89.5 161.167,87.5 163.5,85.5 Z"/></g>
<g><path style="opacity:0.047" fill="#4a444e" d="M 274.5,99.5 C 275.791,99.2627 276.791,99.596 277.5,100.5C 273.787,100.77 270.954,102.436 269,105.5C 267.45,104.409 266.283,103.076 265.5,101.5C 267.988,99.6122 270.988,98.9455 274.5,99.5 Z"/></g>
<g><path style="opacity:0.996" fill="#dbe2e6" d="M 340.5,89.5 C 341.496,89.4142 342.329,89.7476 343,90.5C 347.424,95.0643 350.258,100.398 351.5,106.5C 347.1,101.381 343.433,95.7141 340.5,89.5 Z"/></g>
<g><path style="opacity:0.004" fill="#000000" d="M 143.5,102.5 C 142.833,103.167 142.833,103.167 143.5,102.5 Z"/></g>
<g><path style="opacity:0.212" fill="#33332f" d="M 146.5,98.5 C 146.946,101.01 146.28,103.01 144.5,104.5C 144.672,103.508 144.338,102.842 143.5,102.5C 144.512,101.128 145.512,99.795 146.5,98.5 Z"/></g>
<g><path style="opacity:0.118" fill="#b49ebd" d="M 265.5,101.5 C 263.165,104.165 260.165,105.498 256.5,105.5C 256.158,104.662 255.492,104.328 254.5,104.5C 249.464,104.588 244.464,105.088 239.5,106C 238.177,106.816 237.511,107.983 237.5,109.5C 235.473,109.338 233.473,109.505 231.5,110C 229.455,112.508 227.122,113.008 224.5,111.5C 231.077,107.642 238.077,104.975 245.5,103.5C 252.058,101.953 258.725,101.286 265.5,101.5 Z"/></g>
<g><path style="opacity:0.016" fill="#282a27" d="M 254.5,104.5 C 254.842,105.338 255.508,105.672 256.5,105.5C 253.707,105.746 250.707,105.913 247.5,106C 245.946,107.748 244.28,107.915 242.5,106.5C 240.577,107.092 238.911,108.092 237.5,109.5C 237.511,107.983 238.177,106.816 239.5,106C 244.464,105.088 249.464,104.588 254.5,104.5 Z"/></g>
<g><path style="opacity:1" fill="#9f4df3" d="M 261.5,90.5 C 261.167,91.1667 260.833,91.8333 260.5,92.5C 255.21,94.9972 249.877,97.4972 244.5,100C 242.042,101.733 242.375,102.9 245.5,103.5C 238.077,104.975 231.077,107.642 224.5,111.5C 218.621,113.228 213.287,115.894 208.5,119.5C 201.331,121.188 197.497,125.855 197,133.5C 196.169,140.146 195.669,146.813 195.5,153.5C 195.126,160.532 194.459,167.532 193.5,174.5C 193.324,177.727 192.657,180.727 191.5,183.5C 193.51,168.894 194.343,154.227 194,139.5C 193.586,139.957 193.086,140.291 192.5,140.5C 191.833,139.5 191.167,138.5 190.5,137.5C 189.692,139.423 189.192,141.423 189,143.5C 187,144.833 185,146.167 183,147.5C 182.501,151.486 182.334,155.486 182.5,159.5C 180.373,154.418 179.04,149.085 178.5,143.5C 177.133,139.895 177.3,136.229 179,132.5C 181.499,131.202 183.833,131.536 186,133.5C 187.255,132.789 188.421,131.956 189.5,131C 188.346,130.086 188.513,129.253 190,128.5C 192.552,131.194 193.719,130.527 193.5,126.5C 194.763,120.99 198.096,117.323 203.5,115.5C 203.291,114.914 202.957,114.414 202.5,114C 206.932,113.377 207.265,112.377 203.5,111C 206.172,110.166 208.839,109.332 211.5,108.5C 214.347,102.651 219.013,99.651 225.5,99.5C 227.492,99.6715 229.158,99.0049 230.5,97.5C 230.911,98.2624 231.077,99.2624 231,100.5C 232.663,98.0833 234.829,96.25 237.5,95C 243.247,94.5306 248.414,92.6972 253,89.5C 253.839,90.6241 255.006,91.2908 256.5,91.5C 258.207,91.2716 259.874,90.9383 261.5,90.5 Z"/></g>
<g><path style="opacity:0.012" fill="#38313f" d="M 280.5,102.5 C 283.115,103.45 285.115,105.117 286.5,107.5C 284.516,108.694 282.516,108.694 280.5,107.5C 281.535,105.872 281.535,104.205 280.5,102.5 Z"/></g>
<g><path style="opacity:1" fill="#2e41f8" d="M 324.5,109.5 C 324.5,110.5 324.5,111.5 324.5,112.5C 321.221,111.213 317.887,110.38 314.5,110C 316.223,113.808 319.223,115.475 323.5,115C 324.252,115.671 324.586,116.504 324.5,117.5C 321.921,116.772 319.254,116.272 316.5,116C 315.063,113.275 313.063,111.108 310.5,109.5C 308.425,110.762 306.425,110.595 304.5,109C 299.687,105.712 297.354,101.212 297.5,95.5C 295.5,95.1667 293.5,94.8333 291.5,94.5C 291.649,93.448 291.483,92.448 291,91.5C 284.819,88.6032 278.319,86.6032 271.5,85.5C 274.447,85.0583 277.113,83.8916 279.5,82C 286.323,81.0656 292.99,81.5656 299.5,83.5C 299.5,84.5 299.5,85.5 299.5,86.5C 303.585,86.5823 306.252,88.5823 307.5,92.5C 311.452,94.4289 315.452,96.2622 319.5,98C 320.19,100.696 321.69,102.863 324,104.5C 324.494,106.134 324.66,107.801 324.5,109.5 Z"/></g>
<g><path style="opacity:1" fill="#688ff7" d="M 191.5,103.5 C 189.293,105.688 186.627,107.188 183.5,108C 183.249,112.507 180.916,115.174 176.5,116C 175.406,117.78 174.406,119.614 173.5,121.5C 173.167,120.667 172.833,119.833 172.5,119C 173.409,115.534 174.076,112.034 174.5,108.5C 175.731,105.039 177.231,101.706 179,98.5C 182.13,97.6915 184.63,96.0248 186.5,93.5C 189.056,90.8938 192.056,88.7271 195.5,87C 197.891,86.7132 200.224,86.2132 202.5,85.5C 203.635,86.1027 204.635,86.4361 205.5,86.5C 205.023,87.4776 204.357,88.3109 203.5,89C 201.19,89.4966 198.857,89.6633 196.5,89.5C 196.663,91.8568 196.497,94.1902 196,96.5C 194.25,98.7343 192.75,101.068 191.5,103.5 Z"/></g>
<g><path style="opacity:1" fill="#7f62fb" d="M 238.5,85.5 C 234.461,87.4612 231.294,90.4612 229,94.5C 227.644,93.6198 226.144,93.2865 224.5,93.5C 224.517,95.5648 224.85,97.5648 225.5,99.5C 219.013,99.651 214.347,102.651 211.5,108.5C 208.839,109.332 206.172,110.166 203.5,111C 207.265,112.377 206.932,113.377 202.5,114C 202.957,114.414 203.291,114.914 203.5,115.5C 198.096,117.323 194.763,120.99 193.5,126.5C 192.903,126.265 192.57,125.765 192.5,125C 194.013,123.121 194.679,120.954 194.5,118.5C 193.5,118.5 192.5,118.5 191.5,118.5C 191.5,117.5 191.5,116.5 191.5,115.5C 192.919,114.549 194.585,114.216 196.5,114.5C 197.567,110.468 198.567,106.468 199.5,102.5C 203.229,101.987 206.896,101.154 210.5,100C 212.586,96.8062 215.252,94.3062 218.5,92.5C 224.254,92.6992 228.921,90.5325 232.5,86C 234.473,85.5045 236.473,85.3379 238.5,85.5 Z"/></g>
<g><path style="opacity:0.561" fill="#655582" d="M 286.5,108.5 C 289.547,110.918 291.88,113.918 293.5,117.5C 291.983,117.489 290.816,116.823 290,115.5C 288.807,113.114 287.64,110.78 286.5,108.5 Z"/></g>
<g><path style="opacity:0.494" fill="#6d5e75" d="M 237.5,109.5 C 234.308,109.867 231.641,111.367 229.5,114C 225.381,113.696 221.381,114.696 217.5,117C 217.493,119.119 216.326,120.953 214,122.5C 212.488,121.743 211.154,120.743 210,119.5C 209.353,123.312 207.186,125.645 203.5,126.5C 205.555,124.445 207.221,122.112 208.5,119.5C 213.287,115.894 218.621,113.228 224.5,111.5C 227.122,113.008 229.455,112.508 231.5,110C 233.473,109.505 235.473,109.338 237.5,109.5 Z"/></g>
<g><path style="opacity:1" fill="#7c81fa" d="M 213.5,90.5 C 215.117,91.038 216.784,91.3713 218.5,91.5C 218.5,91.8333 218.5,92.1667 218.5,92.5C 215.252,94.3062 212.586,96.8062 210.5,100C 206.896,101.154 203.229,101.987 199.5,102.5C 198.567,106.468 197.567,110.468 196.5,114.5C 194.585,114.216 192.919,114.549 191.5,115.5C 189.565,116.15 187.565,116.483 185.5,116.5C 185.67,117.822 185.337,118.989 184.5,120C 181.471,120.539 178.471,121.206 175.5,122C 174.726,124.405 174.226,126.905 174,129.5C 173.617,128.944 173.117,128.611 172.5,128.5C 171.564,124.265 171.231,119.931 171.5,115.5C 172.349,113.112 173.349,110.779 174.5,108.5C 174.076,112.034 173.409,115.534 172.5,119C 172.833,119.833 173.167,120.667 173.5,121.5C 174.406,119.614 175.406,117.78 176.5,116C 180.916,115.174 183.249,112.507 183.5,108C 186.627,107.188 189.293,105.688 191.5,103.5C 194.708,102.15 198.041,100.984 201.5,100C 204.757,95.911 208.757,92.7443 213.5,90.5 Z"/></g>
<g><path style="opacity:1" fill="#632ef4" d="M 270.5,85.5 C 270.833,85.5 271.167,85.5 271.5,85.5C 278.319,86.6032 284.819,88.6032 291,91.5C 291.483,92.448 291.649,93.448 291.5,94.5C 293.5,94.8333 295.5,95.1667 297.5,95.5C 297.354,101.212 299.687,105.712 304.5,109C 306.425,110.595 308.425,110.762 310.5,109.5C 313.063,111.108 315.063,113.275 316.5,116C 319.254,116.272 321.921,116.772 324.5,117.5C 325.574,118.885 326.907,120.051 328.5,121C 327.035,122.774 325.702,124.608 324.5,126.5C 320.784,126.884 317.451,128.217 314.5,130.5C 313.328,130.081 312.328,129.415 311.5,128.5C 310.719,129.737 309.719,130.737 308.5,131.5C 306.672,127.536 304.672,124.536 302.5,122.5C 303.5,122.5 304.5,122.5 305.5,122.5C 305.5,121.5 305.5,120.5 305.5,119.5C 303.61,119.703 302.11,119.037 301,117.5C 300.667,118.833 300.333,120.167 300,121.5C 299.329,120.748 298.496,120.414 297.5,120.5C 296.395,119.4 295.062,118.733 293.5,118.5C 293.5,118.167 293.5,117.833 293.5,117.5C 291.88,113.918 289.547,110.918 286.5,108.5C 286.5,108.167 286.5,107.833 286.5,107.5C 285.115,105.117 283.115,103.45 280.5,102.5C 279.29,102.068 278.29,101.401 277.5,100.5C 276.791,99.596 275.791,99.2627 274.5,99.5C 275.609,98.71 276.942,98.21 278.5,98C 273.639,92.4513 267.639,90.618 260.5,92.5C 260.833,91.8333 261.167,91.1667 261.5,90.5C 264.993,89.6112 267.993,87.9445 270.5,85.5 Z"/></g>
<g><path style="opacity:0.216" fill="#80817f" d="M 361.5,117.5 C 364.541,117.406 366.207,118.906 366.5,122C 364.291,122.957 364.457,124.124 367,125.5C 367.608,127.154 368.108,128.821 368.5,130.5C 367.206,129.71 366.039,128.71 365,127.5C 363.83,124.143 362.663,120.809 361.5,117.5 Z"/></g>
<g><path style="opacity:0.953" fill="#c6b5ca" d="M 208.5,119.5 C 207.221,122.112 205.555,124.445 203.5,126.5C 198.777,129.674 197.444,134.007 199.5,139.5C 198.053,140.134 197.387,141.301 197.5,143C 197.528,144.07 197.861,144.903 198.5,145.5C 198.833,145.5 199.167,145.5 199.5,145.5C 199.833,145.5 200.167,145.5 200.5,145.5C 201.075,149.155 200.075,152.155 197.5,154.5C 197.5,153.833 197.167,153.5 196.5,153.5C 196.167,153.5 195.833,153.5 195.5,153.5C 195.669,146.813 196.169,140.146 197,133.5C 197.497,125.855 201.331,121.188 208.5,119.5 Z"/></g>
<g><path style="opacity:1" fill="#0d37d9" d="M 160.5,99.5 C 161.779,98.032 163.446,97.3653 165.5,97.5C 165.051,99.9775 165.717,101.977 167.5,103.5C 169.217,102.332 169.884,100.665 169.5,98.5C 170.5,98.5 171.5,98.5 172.5,98.5C 171.426,102.964 170.093,107.297 168.5,111.5C 168.666,116.511 168.499,121.511 168,126.5C 167.586,126.957 167.086,127.291 166.5,127.5C 165.877,125.034 165.043,122.701 164,120.5C 163.505,122.473 163.338,124.473 163.5,126.5C 158.833,126.833 154.167,127.167 149.5,127.5C 149.382,124.312 148.549,121.312 147,118.5C 146.617,119.056 146.117,119.389 145.5,119.5C 146.167,117.167 146.833,114.833 147.5,112.5C 148.675,112.719 149.675,112.386 150.5,111.5C 148.876,110.131 148.376,108.464 149,106.5C 150.183,107.731 151.349,107.731 152.5,106.5C 153.575,102.638 154.575,98.8049 155.5,95C 156.635,94.2506 157.635,94.4173 158.5,95.5C 157.421,99.7942 156.921,104.128 157,108.5C 158.216,106.038 158.882,103.371 159,100.5C 159.383,99.944 159.883,99.6107 160.5,99.5 Z"/></g>
<g><path style="opacity:0.176" fill="#1a1a1a" d="M 212.5,130.5 C 214.264,129.288 215.93,129.621 217.5,131.5C 215.533,132.684 213.866,132.351 212.5,130.5 Z"/></g>
<g><path style="opacity:0.008" fill="#d3d29c" d="M 369.5,131.5 C 369.369,130.761 369.536,130.094 370,129.5C 370.692,130.437 370.525,131.103 369.5,131.5 Z"/></g>
<g><path style="opacity:1" fill="#9874f9" d="M 191.5,115.5 C 191.5,116.5 191.5,117.5 191.5,118.5C 192.5,118.5 193.5,118.5 194.5,118.5C 194.679,120.954 194.013,123.121 192.5,125C 192.57,125.765 192.903,126.265 193.5,126.5C 193.719,130.527 192.552,131.194 190,128.5C 188.513,129.253 188.346,130.086 189.5,131C 188.421,131.956 187.255,132.789 186,133.5C 183.833,131.536 181.499,131.202 179,132.5C 177.3,136.229 177.133,139.895 178.5,143.5C 178.799,145.604 178.466,147.604 177.5,149.5C 176.818,148.757 176.151,148.091 175.5,147.5C 173.48,141.363 172.48,135.03 172.5,128.5C 173.117,128.611 173.617,128.944 174,129.5C 174.226,126.905 174.726,124.405 175.5,122C 178.471,121.206 181.471,120.539 184.5,120C 185.337,118.989 185.67,117.822 185.5,116.5C 187.565,116.483 189.565,116.15 191.5,115.5 Z"/></g>
<g><path style="opacity:0.176" fill="#484846" d="M 203.5,126.5 C 202.572,129.13 201.572,131.796 200.5,134.5C 201.847,136.492 201.514,138.158 199.5,139.5C 197.444,134.007 198.777,129.674 203.5,126.5 Z"/></g>
<g><path style="opacity:0.2" fill="#7f7789" d="M 293.5,118.5 C 295.062,118.733 296.395,119.4 297.5,120.5C 299.859,123.851 302.192,127.185 304.5,130.5C 304.351,131.552 304.517,132.552 305,133.5C 307.487,135.809 309.487,138.476 311,141.5C 312.337,142.765 313.837,143.265 315.5,143C 313.21,141.223 311.543,139.056 310.5,136.5C 313.5,139.167 316.5,141.833 319.5,144.5C 321.412,146.657 323.079,148.991 324.5,151.5C 323.833,151.5 323.167,151.5 322.5,151.5C 322.5,150.833 322.167,150.5 321.5,150.5C 320.31,148.174 318.31,147.007 315.5,147C 316.833,146.333 316.833,145.667 315.5,145C 314.451,144.508 313.451,144.674 312.5,145.5C 307.638,141.468 304.138,136.468 302,130.5C 298.956,127.69 296.289,124.023 294,119.5C 293.667,119.833 293.333,120.167 293,120.5C 292.308,119.563 292.475,118.897 293.5,118.5 Z"/></g>
<g><path style="opacity:1" fill="#6c5bfa" d="M 340.5,118.5 C 341.675,118.281 342.675,118.614 343.5,119.5C 344.026,121.23 345.026,122.564 346.5,123.5C 347.228,126.212 348.061,128.879 349,131.5C 349.414,131.043 349.914,130.709 350.5,130.5C 352.312,134.722 354.312,138.722 356.5,142.5C 358.082,144.866 357.749,146.866 355.5,148.5C 357.104,150.179 357.771,152.179 357.5,154.5C 356.391,154.557 355.391,154.89 354.5,155.5C 351.142,154.473 349.475,152.14 349.5,148.5C 347.61,148.703 346.11,148.037 345,146.5C 344.983,141.626 342.816,138.126 338.5,136C 338.823,132.29 338.823,128.457 338.5,124.5C 337.167,124.5 335.833,124.5 334.5,124.5C 335.248,122.416 335.248,120.416 334.5,118.5C 331.438,115.972 328.104,113.972 324.5,112.5C 324.5,111.5 324.5,110.5 324.5,109.5C 326.117,108.962 327.784,108.629 329.5,108.5C 330.382,111.156 331.715,113.656 333.5,116C 335.868,116.856 338.202,117.69 340.5,118.5 Z"/></g>
<g><path style="opacity:1" fill="#3d41ea" d="M 171.5,115.5 C 170.188,122.038 170.188,128.705 171.5,135.5C 170.311,136.429 168.978,136.762 167.5,136.5C 167.716,134.319 166.883,132.653 165,131.5C 164.082,134.063 164.582,136.23 166.5,138C 165.833,138.667 165.167,139.333 164.5,140C 162.231,139.626 159.898,139.626 157.5,140C 155.606,141.775 153.939,143.775 152.5,146C 151.552,146.483 150.552,146.649 149.5,146.5C 149.598,148.553 148.931,150.22 147.5,151.5C 146.918,150.069 146.085,148.736 145,147.5C 142.862,138.067 143.029,128.733 145.5,119.5C 146.117,119.389 146.617,119.056 147,118.5C 148.549,121.312 149.382,124.312 149.5,127.5C 154.167,127.167 158.833,126.833 163.5,126.5C 163.338,124.473 163.505,122.473 164,120.5C 165.043,122.701 165.877,125.034 166.5,127.5C 167.086,127.291 167.586,126.957 168,126.5C 168.499,121.511 168.666,116.511 168.5,111.5C 169.158,110.602 169.824,109.602 170.5,108.5C 171.474,110.743 171.808,113.076 171.5,115.5 Z"/></g>
<g><path style="opacity:0.914" fill="#e1dce5" d="M 304.5,130.5 C 306.833,132.167 308.833,134.167 310.5,136.5C 311.543,139.056 313.21,141.223 315.5,143C 313.837,143.265 312.337,142.765 311,141.5C 309.487,138.476 307.487,135.809 305,133.5C 304.517,132.552 304.351,131.552 304.5,130.5 Z"/></g>
<g><path style="opacity:0.055" fill="#191a19" d="M 199.5,139.5 C 200.341,141.379 200.675,143.379 200.5,145.5C 200.167,145.5 199.833,145.5 199.5,145.5C 199.167,140.167 198.833,140.167 198.5,145.5C 197.861,144.903 197.528,144.07 197.5,143C 197.387,141.301 198.053,140.134 199.5,139.5 Z"/></g>
<g><path style="opacity:0.122" fill="#4a4a49" d="M 144.5,104.5 C 140.924,112.197 139.257,120.363 139.5,129C 139.794,134.549 140.461,140.049 141.5,145.5C 141.167,147.167 140.833,148.833 140.5,150.5C 139.167,151.5 137.833,152.5 136.5,153.5C 138.149,154.648 139.649,155.981 141,157.5C 141.753,162.375 141.586,167.208 140.5,172C 142.93,184.102 144.93,196.269 146.5,208.5C 145.5,208.5 144.5,208.5 143.5,208.5C 144.374,204.752 144.707,201.085 144.5,197.5C 142.5,189.167 140.5,180.833 138.5,172.5C 139.294,168.405 139.628,164.405 139.5,160.5C 139.32,159.446 138.987,158.446 138.5,157.5C 130.815,154.419 130.815,151.919 138.5,150C 138.167,149.667 137.833,149.333 137.5,149C 140.277,145.425 139.944,142.092 136.5,139C 137.479,135.736 137.479,132.236 136.5,128.5C 138.623,125.683 138.956,122.683 137.5,119.5C 138.982,115.651 140.148,111.651 141,107.5C 141.422,105.574 142.589,104.574 144.5,104.5 Z"/></g>
<g><path style="opacity:1" fill="#854bfb" d="M 324.5,112.5 C 328.104,113.972 331.438,115.972 334.5,118.5C 335.248,120.416 335.248,122.416 334.5,124.5C 335.833,124.5 337.167,124.5 338.5,124.5C 338.823,128.457 338.823,132.29 338.5,136C 342.816,138.126 344.983,141.626 345,146.5C 346.11,148.037 347.61,148.703 349.5,148.5C 349.475,152.14 351.142,154.473 354.5,155.5C 353.434,157.701 352.767,160.035 352.5,162.5C 351.5,162.5 350.5,162.5 349.5,162.5C 349.968,166.942 348.968,170.942 346.5,174.5C 346.947,180.228 345.947,185.562 343.5,190.5C 342.833,191.5 342.167,192.5 341.5,193.5C 341.5,192.167 341.5,190.833 341.5,189.5C 342.924,187.485 343.59,185.152 343.5,182.5C 344.163,180.359 344.497,178.025 344.5,175.5C 342.988,168.163 342.155,160.83 342,153.5C 339.667,152.167 337.333,150.833 335,149.5C 333.89,147.603 333.724,145.77 334.5,144C 331.961,142.901 331.295,141.234 332.5,139C 330.316,136.984 328.316,134.817 326.5,132.5C 328.736,129.938 328.069,127.938 324.5,126.5C 325.702,124.608 327.035,122.774 328.5,121C 326.907,120.051 325.574,118.885 324.5,117.5C 324.586,116.504 324.252,115.671 323.5,115C 319.223,115.475 316.223,113.808 314.5,110C 317.887,110.38 321.221,111.213 324.5,112.5 Z"/></g>
<g><path style="opacity:1" fill="#683ef4" d="M 171.5,115.5 C 171.231,119.931 171.564,124.265 172.5,128.5C 172.48,135.03 173.48,141.363 175.5,147.5C 174.12,146.294 172.953,146.627 172,148.5C 171,147.833 170,147.167 169,146.5C 167.943,148.219 167.11,150.053 166.5,152C 162.833,154.333 159.167,156.667 155.5,159C 158.12,161.625 157.954,164.125 155,166.5C 154.261,164.779 153.427,163.113 152.5,161.5C 151.342,166.103 150.509,170.77 150,175.5C 149.586,175.043 149.086,174.709 148.5,174.5C 147.534,176.396 147.201,178.396 147.5,180.5C 147.167,180.5 146.833,180.5 146.5,180.5C 146.5,179.833 146.5,179.167 146.5,178.5C 146.267,172.332 145.933,166.165 145.5,160C 145.519,156.748 146.186,153.915 147.5,151.5C 148.931,150.22 149.598,148.553 149.5,146.5C 150.552,146.649 151.552,146.483 152.5,146C 153.939,143.775 155.606,141.775 157.5,140C 159.898,139.626 162.231,139.626 164.5,140C 165.167,139.333 165.833,138.667 166.5,138C 164.582,136.23 164.082,134.063 165,131.5C 166.883,132.653 167.716,134.319 167.5,136.5C 168.978,136.762 170.311,136.429 171.5,135.5C 170.188,128.705 170.188,122.038 171.5,115.5 Z"/></g>
<g><path style="opacity:0.216" fill="#3e3e3e" d="M 383.5,150.5 C 385.698,156.654 387.031,163.154 387.5,170C 384.4,172.975 384.067,176.142 386.5,179.5C 383.906,181.725 382.24,184.391 381.5,187.5C 381.34,185.801 381.506,184.134 382,182.5C 383.236,181.601 384.07,180.434 384.5,179C 384.419,172.829 384.419,166.663 384.5,160.5C 382.342,157.37 382.009,154.036 383.5,150.5 Z"/></g>
<g><path style="opacity:0.996" fill="#e0dbdd" d="M 322.5,151.5 C 323.167,151.5 323.833,151.5 324.5,151.5C 326.5,152.833 328.167,154.5 329.5,156.5C 330.234,157.708 330.567,159.041 330.5,160.5C 324.415,160.709 321.749,157.709 322.5,151.5 Z"/></g>
<g><path style="opacity:1" fill="#7d31f5" d="M 324.5,126.5 C 328.069,127.938 328.736,129.938 326.5,132.5C 328.316,134.817 330.316,136.984 332.5,139C 331.295,141.234 331.961,142.901 334.5,144C 333.724,145.77 333.89,147.603 335,149.5C 337.333,150.833 339.667,152.167 342,153.5C 342.155,160.83 342.988,168.163 344.5,175.5C 344.497,178.025 344.163,180.359 343.5,182.5C 343.785,176.346 342.951,170.346 341,164.5C 337.194,160.694 333.36,156.86 329.5,153C 332.003,147.159 330.337,144.992 324.5,146.5C 322.823,145.813 321.156,145.146 319.5,144.5C 316.5,141.833 313.5,139.167 310.5,136.5C 308.833,134.167 306.833,132.167 304.5,130.5C 302.192,127.185 299.859,123.851 297.5,120.5C 298.496,120.414 299.329,120.748 300,121.5C 300.333,120.167 300.667,118.833 301,117.5C 302.11,119.037 303.61,119.703 305.5,119.5C 305.5,120.5 305.5,121.5 305.5,122.5C 304.5,122.5 303.5,122.5 302.5,122.5C 304.672,124.536 306.672,127.536 308.5,131.5C 309.719,130.737 310.719,129.737 311.5,128.5C 312.328,129.415 313.328,130.081 314.5,130.5C 317.451,128.217 320.784,126.884 324.5,126.5 Z"/></g>
<g><path style="opacity:0.996" fill="#d7d7d7" d="M 355.5,106.5 C 358.244,109.646 360.244,113.313 361.5,117.5C 362.663,120.809 363.83,124.143 365,127.5C 366.039,128.71 367.206,129.71 368.5,130.5C 368.5,131.167 368.833,131.5 369.5,131.5C 371.988,134.767 373.821,138.434 375,142.5C 375.667,143.833 376.333,143.833 377,142.5C 379.929,144.671 382.096,147.338 383.5,150.5C 382.009,154.036 382.342,157.37 384.5,160.5C 384.419,166.663 384.419,172.829 384.5,179C 384.07,180.434 383.236,181.601 382,182.5C 381.506,184.134 381.34,185.801 381.5,187.5C 379.559,192.983 377.226,198.316 374.5,203.5C 374.771,205.38 374.104,206.713 372.5,207.5C 371.637,208.463 370.97,208.463 370.5,207.5C 371.853,206.476 372.52,205.143 372.5,203.5C 372.5,202.833 372.5,202.167 372.5,201.5C 379.524,189.879 382.024,177.212 380,163.5C 379.025,158.569 377.525,153.902 375.5,149.5C 370.825,140.142 365.159,131.475 358.5,123.5C 357.344,121.176 356.344,118.843 355.5,116.5C 354.439,113.378 353.105,110.378 351.5,107.5C 352.609,107.557 353.609,107.89 354.5,108.5C 355.338,108.158 355.672,107.492 355.5,106.5 Z"/></g>
<g><path style="opacity:1" fill="#8837f8" d="M 175.5,147.5 C 176.91,150.95 177.576,154.616 177.5,158.5C 177.5,159.5 177.5,160.5 177.5,161.5C 172.876,165.125 169.209,169.625 166.5,175C 164.413,175.792 162.579,176.959 161,178.5C 160.333,177.833 159.667,177.167 159,176.5C 158.585,178.291 157.585,179.624 156,180.5C 155.179,188.311 153.845,188.311 152,180.5C 151.827,186.016 151.327,191.349 150.5,196.5C 149.87,191.089 148.87,185.756 147.5,180.5C 147.201,178.396 147.534,176.396 148.5,174.5C 149.086,174.709 149.586,175.043 150,175.5C 150.509,170.77 151.342,166.103 152.5,161.5C 153.427,163.113 154.261,164.779 155,166.5C 157.954,164.125 158.12,161.625 155.5,159C 159.167,156.667 162.833,154.333 166.5,152C 167.11,150.053 167.943,148.219 169,146.5C 170,147.167 171,147.833 172,148.5C 172.953,146.627 174.12,146.294 175.5,147.5 Z"/></g>
<g><path style="opacity:1" fill="#7e70f6" d="M 358.5,123.5 C 365.159,131.475 370.825,140.142 375.5,149.5C 376.341,153.163 376.841,156.83 377,160.5C 375.942,153.972 373.942,153.305 371,158.5C 370.667,158.167 370.333,157.833 370,157.5C 369.51,158.793 369.343,160.127 369.5,161.5C 367.097,161.393 365.264,162.393 364,164.5C 363.365,163.034 362.531,161.7 361.5,160.5C 363.045,159.548 364.712,159.215 366.5,159.5C 366.5,158.5 366.5,157.5 366.5,156.5C 363.246,156.793 360.246,156.126 357.5,154.5C 357.771,152.179 357.104,150.179 355.5,148.5C 357.749,146.866 358.082,144.866 356.5,142.5C 354.312,138.722 352.312,134.722 350.5,130.5C 349.914,130.709 349.414,131.043 349,131.5C 348.061,128.879 347.228,126.212 346.5,123.5C 345.026,122.564 344.026,121.23 343.5,119.5C 342.675,118.614 341.675,118.281 340.5,118.5C 337.843,115.343 335.01,112.343 332,109.5C 331.312,108.668 331.479,108.002 332.5,107.5C 334.51,108.502 336.51,109.502 338.5,110.5C 344.103,116.28 350.103,121.447 356.5,126C 358.061,126.188 358.728,125.355 358.5,123.5 Z"/></g>
<g><path style="opacity:0.106" fill="#444244" d="M 321.5,150.5 C 322.167,150.5 322.5,150.833 322.5,151.5C 321.749,157.709 324.415,160.709 330.5,160.5C 331.833,161.5 331.833,162.5 330.5,163.5C 327.896,163.226 325.396,161.893 323,159.5C 321.711,156.649 321.211,153.649 321.5,150.5 Z"/></g>
<g><path style="opacity:1" fill="#b030f4" d="M 191.5,183.5 C 191.5,184.5 191.5,185.5 191.5,186.5C 190.493,189.322 189.66,192.322 189,195.5C 186.41,183.519 184.243,171.519 182.5,159.5C 182.334,155.486 182.501,151.486 183,147.5C 185,146.167 187,144.833 189,143.5C 189.192,141.423 189.692,139.423 190.5,137.5C 191.167,138.5 191.833,139.5 192.5,140.5C 193.086,140.291 193.586,139.957 194,139.5C 194.343,154.227 193.51,168.894 191.5,183.5 Z"/></g>
<g><path style="opacity:1" fill="#621dd5" d="M 319.5,144.5 C 321.156,145.146 322.823,145.813 324.5,146.5C 330.337,144.992 332.003,147.159 329.5,153C 333.36,156.86 337.194,160.694 341,164.5C 342.951,170.346 343.785,176.346 343.5,182.5C 343.59,185.152 342.924,187.485 341.5,189.5C 339.803,191.305 338.97,193.639 339,196.5C 337.989,197.337 336.822,197.67 335.5,197.5C 335.784,199.415 335.451,201.081 334.5,202.5C 333.539,200.735 333.205,198.735 333.5,196.5C 332.5,196.5 331.5,196.5 330.5,196.5C 330.184,189.815 331.518,189.148 334.5,194.5C 336.217,193.332 336.884,191.665 336.5,189.5C 335.5,189.5 334.5,189.5 333.5,189.5C 333.5,188.167 333.5,186.833 333.5,185.5C 334.833,185.5 336.167,185.5 337.5,185.5C 337.351,186.552 337.517,187.552 338,188.5C 341.533,184.403 340.367,182.737 334.5,183.5C 334.66,181.801 334.494,180.134 334,178.5C 332.432,176.425 330.932,174.425 329.5,172.5C 331.49,169.492 332.49,166.159 332.5,162.5C 332.333,160.833 332.167,159.167 332,157.5C 331.329,156.748 330.496,156.414 329.5,156.5C 328.167,154.5 326.5,152.833 324.5,151.5C 323.079,148.991 321.412,146.657 319.5,144.5 Z"/></g>
<g><path style="opacity:1" fill="#a56dfb" d="M 357.5,154.5 C 360.246,156.126 363.246,156.793 366.5,156.5C 366.5,157.5 366.5,158.5 366.5,159.5C 364.712,159.215 363.045,159.548 361.5,160.5C 362.531,161.7 363.365,163.034 364,164.5C 365.264,162.393 367.097,161.393 369.5,161.5C 369.918,162.222 370.584,162.722 371.5,163C 370.663,164.011 370.33,165.178 370.5,166.5C 368.833,166.5 367.167,166.5 365.5,166.5C 365.663,168.857 365.497,171.19 365,173.5C 364.333,172.833 363.667,172.167 363,171.5C 358.937,173.691 354.604,175.358 350,176.5C 349.29,175.027 348.124,174.36 346.5,174.5C 348.968,170.942 349.968,166.942 349.5,162.5C 350.5,162.5 351.5,162.5 352.5,162.5C 352.767,160.035 353.434,157.701 354.5,155.5C 355.391,154.89 356.391,154.557 357.5,154.5 Z"/></g>
<g><path style="opacity:0.58" fill="#60458c" d="M 329.5,156.5 C 330.496,156.414 331.329,156.748 332,157.5C 332.167,159.167 332.333,160.833 332.5,162.5C 332.49,166.159 331.49,169.492 329.5,172.5C 327.167,175.167 324.833,177.833 322.5,180.5C 322.5,179.833 322.5,179.167 322.5,178.5C 323.3,176.318 324.8,174.651 327,173.5C 328.505,171.702 328.672,169.868 327.5,168C 328.883,166.729 329.883,165.229 330.5,163.5C 331.833,162.5 331.833,161.5 330.5,160.5C 330.567,159.041 330.234,157.708 329.5,156.5 Z"/></g>
<g><path style="opacity:1" fill="#a235f9" d="M 177.5,161.5 C 178.866,170.549 178.533,179.549 176.5,188.5C 174.783,189.668 174.116,191.335 174.5,193.5C 172.549,193.227 171.049,193.893 170,195.5C 169.667,194.833 169.333,194.167 169,193.5C 167.703,198.289 164.536,200.622 159.5,200.5C 159.709,201.086 160.043,201.586 160.5,202C 158.866,202.494 157.199,202.66 155.5,202.5C 155.62,207.937 156.454,213.27 158,218.5C 160.904,221.642 162.738,225.309 163.5,229.5C 161.817,227.486 159.817,225.82 157.5,224.5C 153.475,216.683 152.142,208.35 153.5,199.5C 152.5,199.5 151.5,199.5 150.5,199.5C 150.5,198.5 150.5,197.5 150.5,196.5C 151.327,191.349 151.827,186.016 152,180.5C 153.845,188.311 155.179,188.311 156,180.5C 157.585,179.624 158.585,178.291 159,176.5C 159.667,177.167 160.333,177.833 161,178.5C 162.579,176.959 164.413,175.792 166.5,175C 169.209,169.625 172.876,165.125 177.5,161.5 Z"/></g>
<g><path style="opacity:0.753" fill="#615a62" d="M 195.5,153.5 C 195.833,153.5 196.167,153.5 196.5,153.5C 197.167,153.5 197.5,153.833 197.5,154.5C 196.588,157.535 196.588,160.535 197.5,163.5C 195.267,167.93 195.267,172.43 197.5,177C 196.971,178.559 196.304,180.059 195.5,181.5C 197.048,185.711 196.381,189.544 193.5,193C 194.608,194.677 194.608,196.177 193.5,197.5C 193.062,195.874 192.728,194.207 192.5,192.5C 193.969,187.419 194.969,182.253 195.5,177C 195.361,175.699 194.695,174.866 193.5,174.5C 194.459,167.532 195.126,160.532 195.5,153.5 Z"/></g>
<g><path style="opacity:1" fill="#bd78f9" d="M 375.5,149.5 C 377.525,153.902 379.025,158.569 380,163.5C 382.024,177.212 379.524,189.879 372.5,201.5C 372.762,200.022 372.429,198.689 371.5,197.5C 370.365,199.707 369.699,202.04 369.5,204.5C 366.284,203.466 363.45,201.8 361,199.5C 357.972,202.477 354.472,203.144 350.5,201.5C 348.381,206.057 345.381,206.724 341.5,203.5C 341.167,202.667 340.833,201.833 340.5,201C 342.197,197.737 343.197,194.237 343.5,190.5C 345.947,185.562 346.947,180.228 346.5,174.5C 348.124,174.36 349.29,175.027 350,176.5C 354.604,175.358 358.937,173.691 363,171.5C 363.667,172.167 364.333,172.833 365,173.5C 365.497,171.19 365.663,168.857 365.5,166.5C 367.167,166.5 368.833,166.5 370.5,166.5C 370.33,165.178 370.663,164.011 371.5,163C 370.584,162.722 369.918,162.222 369.5,161.5C 369.343,160.127 369.51,158.793 370,157.5C 370.333,157.833 370.667,158.167 371,158.5C 373.942,153.305 375.942,153.972 377,160.5C 376.841,156.83 376.341,153.163 375.5,149.5 Z"/></g>
<g><path style="opacity:0.008" fill="#282828" d="M 318.5,181.5 C 317.5,183.167 316.167,184.5 314.5,185.5C 314.062,185.565 313.728,185.399 313.5,185C 315,183.5 316.5,182 318,180.5C 318.399,180.728 318.565,181.062 318.5,181.5 Z"/></g>
<g><path style="opacity:0.808" fill="#aa95b8" d="M 322.5,178.5 C 322.5,179.167 322.5,179.833 322.5,180.5C 316.259,187.985 310.259,195.652 304.5,203.5C 304.201,202.24 304.201,201.073 304.5,200C 307.273,194.736 310.607,189.903 314.5,185.5C 316.167,184.5 317.5,183.167 318.5,181.5C 319.526,180.147 320.859,179.147 322.5,178.5 Z"/></g>
<g><path style="opacity:1" fill="#6202dd" d="M 329.5,172.5 C 330.932,174.425 332.432,176.425 334,178.5C 334.494,180.134 334.66,181.801 334.5,183.5C 340.367,182.737 341.533,184.403 338,188.5C 337.517,187.552 337.351,186.552 337.5,185.5C 336.167,185.5 334.833,185.5 333.5,185.5C 333.5,186.833 333.5,188.167 333.5,189.5C 334.5,189.5 335.5,189.5 336.5,189.5C 336.884,191.665 336.217,193.332 334.5,194.5C 331.518,189.148 330.184,189.815 330.5,196.5C 331.5,196.5 332.5,196.5 333.5,196.5C 333.205,198.735 333.539,200.735 334.5,202.5C 333.092,204.31 331.925,206.31 331,208.5C 330.51,209.793 330.343,211.127 330.5,212.5C 329.5,212.5 328.5,212.5 327.5,212.5C 327.762,211.022 327.429,209.689 326.5,208.5C 325.147,209.685 323.98,211.019 323,212.5C 322.355,211.354 321.522,210.354 320.5,209.5C 321.853,208.476 322.52,207.143 322.5,205.5C 320.459,205.146 318.626,205.146 317,205.5C 316.29,204.027 315.124,203.36 313.5,203.5C 313.762,202.022 313.429,200.689 312.5,199.5C 311.5,202.167 310.5,202.167 309.5,199.5C 309.887,198.28 310.72,197.613 312,197.5C 315.256,198.945 317.089,197.779 317.5,194C 316.978,193.05 316.311,192.216 315.5,191.5C 317.098,188.399 319.265,185.732 322,183.5C 322.483,182.552 322.649,181.552 322.5,180.5C 324.833,177.833 327.167,175.167 329.5,172.5 Z"/></g>
<g><path style="opacity:0.592" fill="#d3c0d8" d="M 193.5,174.5 C 194.695,174.866 195.361,175.699 195.5,177C 194.969,182.253 193.969,187.419 192.5,192.5C 192.728,194.207 193.062,195.874 193.5,197.5C 193.5,198.167 193.5,198.833 193.5,199.5C 193.674,201.861 194.007,204.194 194.5,206.5C 194.167,206.5 193.833,206.5 193.5,206.5C 191.731,199.984 191.064,193.317 191.5,186.5C 191.5,185.5 191.5,184.5 191.5,183.5C 192.657,180.727 193.324,177.727 193.5,174.5 Z"/></g>
<g><path style="opacity:0.004" fill="#fefffe" d="M 141.5,194.5 C 142.833,195.167 142.833,195.167 141.5,194.5 Z"/></g>
<g><path style="opacity:0.278" fill="#3a3b39" d="M 381.5,187.5 C 381.263,190.212 381.263,192.712 381.5,195C 379.497,197.089 378.33,199.589 378,202.5C 376.989,203.337 375.822,203.67 374.5,203.5C 377.226,198.316 379.559,192.983 381.5,187.5 Z"/></g>
<g><path style="opacity:1" fill="#c342fb" d="M 177.5,158.5 C 180.776,169.104 183.109,180.104 184.5,191.5C 183.259,196.931 181.759,202.264 180,207.5C 179.798,205.744 179.298,204.078 178.5,202.5C 177.297,206.11 176.297,209.776 175.5,213.5C 176.674,217.326 179.341,219.326 183.5,219.5C 186.158,218.568 188.825,218.401 191.5,219C 190.007,217.844 190.174,217.01 192,216.5C 193.9,217.077 195.733,217.744 197.5,218.5C 196.791,219.404 195.791,219.737 194.5,219.5C 194.5,220.5 194.5,221.5 194.5,222.5C 191,222.61 187.666,223.443 184.5,225C 183.663,226.011 183.33,227.178 183.5,228.5C 177.961,227.413 175.295,229.413 175.5,234.5C 172.306,232.866 168.972,231.532 165.5,230.5C 164.833,230.167 164.167,229.833 163.5,229.5C 162.738,225.309 160.904,221.642 158,218.5C 156.454,213.27 155.62,207.937 155.5,202.5C 157.199,202.66 158.866,202.494 160.5,202C 160.043,201.586 159.709,201.086 159.5,200.5C 164.536,200.622 167.703,198.289 169,193.5C 169.333,194.167 169.667,194.833 170,195.5C 171.049,193.893 172.549,193.227 174.5,193.5C 174.116,191.335 174.783,189.668 176.5,188.5C 178.533,179.549 178.866,170.549 177.5,161.5C 177.5,160.5 177.5,159.5 177.5,158.5 Z"/></g>
<g><path style="opacity:0.275" fill="#393c39" d="M 193.5,199.5 C 195.534,201.655 195.867,203.988 194.5,206.5C 194.007,204.194 193.674,201.861 193.5,199.5 Z"/></g>
<g><path style="opacity:1" fill="#cf64f7" d="M 343.5,190.5 C 343.197,194.237 342.197,197.737 340.5,201C 340.833,201.833 341.167,202.667 341.5,203.5C 345.381,206.724 348.381,206.057 350.5,201.5C 354.472,203.144 357.972,202.477 361,199.5C 363.45,201.8 366.284,203.466 369.5,204.5C 369.699,202.04 370.365,199.707 371.5,197.5C 372.429,198.689 372.762,200.022 372.5,201.5C 372.5,202.167 372.5,202.833 372.5,203.5C 369.579,206.242 367.579,209.575 366.5,213.5C 365.272,214.306 364.272,215.306 363.5,216.5C 363.179,214.952 362.179,214.285 360.5,214.5C 360.719,213.325 360.386,212.325 359.5,211.5C 358.298,214.988 356.798,218.322 355,221.5C 355.093,218.044 354.093,215.044 352,212.5C 351.808,214.577 351.308,216.577 350.5,218.5C 349.757,217.092 348.923,215.759 348,214.5C 345.218,215.346 342.384,215.513 339.5,215C 336.728,219.281 333.728,223.448 330.5,227.5C 330.167,226.667 329.833,225.833 329.5,225C 331.218,222.438 332.218,219.605 332.5,216.5C 334.922,208.562 337.922,200.895 341.5,193.5C 342.167,192.5 342.833,191.5 343.5,190.5 Z"/></g>
<g><path style="opacity:1" fill="#d459f4" d="M 178.5,143.5 C 179.04,149.085 180.373,154.418 182.5,159.5C 184.243,171.519 186.41,183.519 189,195.5C 189.66,192.322 190.493,189.322 191.5,186.5C 191.064,193.317 191.731,199.984 193.5,206.5C 193.369,209.367 194.703,211.033 197.5,211.5C 200.705,213.464 204.038,215.131 207.5,216.5C 204.557,216.353 201.724,215.687 199,214.5C 198.5,214.667 198,214.833 197.5,215C 198.791,216.292 198.791,217.458 197.5,218.5C 195.733,217.744 193.9,217.077 192,216.5C 190.174,217.01 190.007,217.844 191.5,219C 188.825,218.401 186.158,218.568 183.5,219.5C 179.341,219.326 176.674,217.326 175.5,213.5C 176.297,209.776 177.297,206.11 178.5,202.5C 179.298,204.078 179.798,205.744 180,207.5C 181.759,202.264 183.259,196.931 184.5,191.5C 183.109,180.104 180.776,169.104 177.5,158.5C 177.576,154.616 176.91,150.95 175.5,147.5C 176.151,148.091 176.818,148.757 177.5,149.5C 178.466,147.604 178.799,145.604 178.5,143.5 Z"/></g>
<g><path style="opacity:0.855" fill="#bc84cf" d="M 372.5,203.5 C 372.52,205.143 371.853,206.476 370.5,207.5C 370.97,208.463 371.637,208.463 372.5,207.5C 372.5,208.167 372.5,208.833 372.5,209.5C 371.5,209.5 370.5,209.5 369.5,209.5C 369.532,211.619 368.532,212.952 366.5,213.5C 367.579,209.575 369.579,206.242 372.5,203.5 Z"/></g>
<g><path style="opacity:0.227" fill="#5b505d" d="M 193.5,206.5 C 193.833,206.5 194.167,206.5 194.5,206.5C 195.421,209.574 197.254,210.574 200,209.5C 202.069,210.264 204.236,210.764 206.5,211C 207.942,211.377 208.942,212.21 209.5,213.5C 209.631,214.239 209.464,214.906 209,215.5C 206.003,212.033 202.169,210.7 197.5,211.5C 194.703,211.033 193.369,209.367 193.5,206.5 Z"/></g>
<g><path style="opacity:1" fill="#ad6cdd" d="M 147.5,190.5 C 148.811,198.434 150.478,206.434 152.5,214.5C 151.586,220.459 151.253,226.459 151.5,232.5C 149.654,228.132 148.487,223.465 148,218.5C 147.5,209.173 147.334,199.839 147.5,190.5 Z"/></g>
<g><path style="opacity:0.114" fill="#a274ba" d="M 304.5,203.5 C 302.421,207.993 300.088,212.326 297.5,216.5C 296.5,217.167 295.5,217.833 294.5,218.5C 294.389,217.883 294.056,217.383 293.5,217C 295.697,214.114 297.53,210.948 299,207.5C 300.432,205.561 302.265,204.228 304.5,203.5 Z"/></g>
<g><path style="opacity:1" fill="#9505e7" d="M 322.5,180.5 C 322.649,181.552 322.483,182.552 322,183.5C 319.265,185.732 317.098,188.399 315.5,191.5C 316.311,192.216 316.978,193.05 317.5,194C 317.089,197.779 315.256,198.945 312,197.5C 310.72,197.613 309.887,198.28 309.5,199.5C 310.5,202.167 311.5,202.167 312.5,199.5C 313.429,200.689 313.762,202.022 313.5,203.5C 315.124,203.36 316.29,204.027 317,205.5C 318.626,205.146 320.459,205.146 322.5,205.5C 322.52,207.143 321.853,208.476 320.5,209.5C 321.522,210.354 322.355,211.354 323,212.5C 323.98,211.019 325.147,209.685 326.5,208.5C 327.429,209.689 327.762,211.022 327.5,212.5C 328.5,212.5 329.5,212.5 330.5,212.5C 330.343,211.127 330.51,209.793 331,208.5C 331.925,206.31 333.092,204.31 334.5,202.5C 335.451,201.081 335.784,199.415 335.5,197.5C 336.822,197.67 337.989,197.337 339,196.5C 338.97,193.639 339.803,191.305 341.5,189.5C 341.5,190.833 341.5,192.167 341.5,193.5C 337.922,200.895 334.922,208.562 332.5,216.5C 329.32,219.939 327.654,224.105 327.5,229C 327.164,230.03 326.497,230.53 325.5,230.5C 324.849,229.909 324.182,229.243 323.5,228.5C 322.534,230.396 322.201,232.396 322.5,234.5C 320.8,234.626 319.3,235.293 318,236.5C 315.975,236.172 313.809,236.006 311.5,236C 310.072,233.217 308.738,230.383 307.5,227.5C 306.833,227.833 306.167,228.167 305.5,228.5C 303.738,226.311 301.571,224.644 299,223.5C 298.098,223.743 297.265,224.077 296.5,224.5C 295.761,224.631 295.094,224.464 294.5,224C 295.277,221.372 296.277,218.872 297.5,216.5C 300.088,212.326 302.421,207.993 304.5,203.5C 310.259,195.652 316.259,187.985 322.5,180.5 Z"/></g>
<g><path style="opacity:0.58" fill="#484847" d="M 144.5,209.5 C 144.504,215.643 145.004,221.976 146,228.5C 149.131,231.868 151.131,235.868 152,240.5C 152.852,241.571 153.685,242.571 154.5,243.5C 154.5,243.833 154.5,244.167 154.5,244.5C 152.926,244.063 151.759,243.063 151,241.5C 150.626,239.509 149.793,237.842 148.5,236.5C 148.553,233.939 147.553,231.939 145.5,230.5C 144.679,227.553 144.179,224.553 144,221.5C 143.667,223.833 143.333,226.167 143,228.5C 142.974,222.435 142.974,216.435 143,210.5C 144.087,212.932 144.587,212.598 144.5,209.5 Z"/></g>
<g><path style="opacity:0.039" fill="#b19ab5" d="M 197.5,211.5 C 202.169,210.7 206.003,212.033 209,215.5C 209.464,214.906 209.631,214.239 209.5,213.5C 212.187,213.336 214.854,213.503 217.5,214C 220.377,215.702 223.377,217.202 226.5,218.5C 227.086,218.291 227.586,217.957 228,217.5C 232.731,218.561 236.731,220.894 240,224.5C 240.561,223.978 241.228,223.645 242,223.5C 245.334,225.167 248.834,226.334 252.5,227C 255.473,228.31 257.807,230.31 259.5,233C 263.531,234.732 267.531,235.732 271.5,236C 273.3,237.812 274.967,239.645 276.5,241.5C 271.158,240.328 266.158,238.328 261.5,235.5C 244.189,227.174 226.189,220.841 207.5,216.5C 204.038,215.131 200.705,213.464 197.5,211.5 Z"/></g>
<g><path style="opacity:1" fill="#d645f3" d="M 363.5,216.5 C 359.247,223.268 354.747,229.934 350,236.5C 343.005,245.327 335.505,253.66 327.5,261.5C 327.281,260.325 327.614,259.325 328.5,258.5C 332.628,255.896 334.962,252.229 335.5,247.5C 336.5,247.5 337.5,247.5 338.5,247.5C 338.608,245.217 339.441,243.217 341,241.5C 342.156,242.993 342.99,242.826 343.5,241C 342.728,239.779 341.728,238.779 340.5,238C 341.76,236.186 341.76,234.353 340.5,232.5C 336.918,236.807 334.751,236.14 334,230.5C 329.553,236.724 325.387,243.058 321.5,249.5C 320.702,249.043 320.369,248.376 320.5,247.5C 320.5,246.833 320.5,246.167 320.5,245.5C 322.06,240.535 323.727,235.535 325.5,230.5C 326.497,230.53 327.164,230.03 327.5,229C 327.654,224.105 329.32,219.939 332.5,216.5C 332.218,219.605 331.218,222.438 329.5,225C 329.833,225.833 330.167,226.667 330.5,227.5C 333.728,223.448 336.728,219.281 339.5,215C 342.384,215.513 345.218,215.346 348,214.5C 348.923,215.759 349.757,217.092 350.5,218.5C 351.308,216.577 351.808,214.577 352,212.5C 354.093,215.044 355.093,218.044 355,221.5C 356.798,218.322 358.298,214.988 359.5,211.5C 360.386,212.325 360.719,213.325 360.5,214.5C 362.179,214.285 363.179,214.952 363.5,216.5 Z"/></g>
<g><path style="opacity:1" fill="#a046d4" d="M 146.5,180.5 C 146.833,180.5 147.167,180.5 147.5,180.5C 148.87,185.756 149.87,191.089 150.5,196.5C 150.5,197.5 150.5,198.5 150.5,199.5C 151.5,199.5 152.5,199.5 153.5,199.5C 152.142,208.35 153.475,216.683 157.5,224.5C 158.143,229.746 157.81,235.08 156.5,240.5C 153.862,238.582 152.195,235.915 151.5,232.5C 151.253,226.459 151.586,220.459 152.5,214.5C 150.478,206.434 148.811,198.434 147.5,190.5C 146.949,187.193 146.616,183.86 146.5,180.5 Z"/></g>
<g><path style="opacity:0.961" fill="#dfdae4" d="M 156.5,88.5 C 156.5,89.5 156.5,90.5 156.5,91.5C 150.196,99.5658 145.696,108.566 143,118.5C 141.717,138.8 142.883,158.8 146.5,178.5C 146.5,179.167 146.5,179.833 146.5,180.5C 146.616,183.86 146.949,187.193 147.5,190.5C 147.334,199.839 147.5,209.173 148,218.5C 148.487,223.465 149.654,228.132 151.5,232.5C 152.195,235.915 153.862,238.582 156.5,240.5C 161.077,249.077 167.41,256.077 175.5,261.5C 171.562,260.87 167.895,259.537 164.5,257.5C 164.167,256.833 163.833,256.167 163.5,255.5C 161.21,250.953 158.21,246.953 154.5,243.5C 153.685,242.571 152.852,241.571 152,240.5C 151.131,235.868 149.131,231.868 146,228.5C 145.004,221.976 144.504,215.643 144.5,209.5C 143.833,209.5 143.5,209.167 143.5,208.5C 144.5,208.5 145.5,208.5 146.5,208.5C 144.93,196.269 142.93,184.102 140.5,172C 141.586,167.208 141.753,162.375 141,157.5C 139.649,155.981 138.149,154.648 136.5,153.5C 137.833,152.5 139.167,151.5 140.5,150.5C 140.833,148.833 141.167,147.167 141.5,145.5C 140.461,140.049 139.794,134.549 139.5,129C 139.257,120.363 140.924,112.197 144.5,104.5C 146.28,103.01 146.946,101.01 146.5,98.5C 148.749,94.2511 152.082,90.9178 156.5,88.5 Z"/></g>
<g><path style="opacity:0.008" fill="#b18bc0" d="M 282.5,238.5 C 282.167,238.5 281.833,238.5 281.5,238.5C 282.483,234.365 284.649,231.032 288,228.5C 288.828,225.353 290.328,222.686 292.5,220.5C 294.813,219.608 295.147,220.442 293.5,223C 290.021,227.458 287.188,232.291 285,237.5C 284.329,238.252 283.496,238.586 282.5,238.5 Z"/></g>
<g><path style="opacity:0.01" fill="#7e7e7e" d="M 355.5,234.5 C 355.833,234.5 356.167,234.5 356.5,234.5C 356.672,235.492 356.338,236.158 355.5,236.5C 355.5,235.833 355.5,235.167 355.5,234.5 Z"/></g>
<g><path style="opacity:0.004" fill="#fefffe" d="M 148.5,236.5 C 147.833,237.167 147.833,237.167 148.5,236.5 Z"/></g>
<g><path style="opacity:1" fill="#c408f3" d="M 207.5,216.5 C 226.189,220.841 244.189,227.174 261.5,235.5C 261.897,237.662 263.231,238.995 265.5,239.5C 263.915,243.93 265.581,246.263 270.5,246.5C 274.866,246.036 278.866,244.702 282.5,242.5C 282.5,243.167 282.5,243.833 282.5,244.5C 280.319,244.284 278.653,245.117 277.5,247C 269.841,247.5 262.174,247.666 254.5,247.5C 252.833,246.833 251.167,246.167 249.5,245.5C 230.001,243.326 210.334,242.993 190.5,244.5C 190.5,245.5 190.5,246.5 190.5,247.5C 195.141,250.117 200.141,252.283 205.5,254C 205.957,254.414 206.291,254.914 206.5,255.5C 205.311,256.429 203.978,256.762 202.5,256.5C 202.05,260.224 203.717,262.391 207.5,263C 205.5,263.333 203.5,263.667 201.5,264C 204.534,265.386 207.2,267.219 209.5,269.5C 207.709,270.17 206.042,270.837 204.5,271.5C 203.5,271.5 202.5,271.5 201.5,271.5C 200.833,271.5 200.167,271.5 199.5,271.5C 197.859,269.742 195.859,268.242 193.5,267C 194.938,266.781 196.271,266.281 197.5,265.5C 193.872,265.432 190.205,265.099 186.5,264.5C 191.35,263.632 191.517,262.632 187,261.5C 186,262.167 185,262.833 184,263.5C 182.174,262.99 182.007,262.156 183.5,261C 182.327,258.74 180.994,256.574 179.5,254.5C 180.325,253.614 181.325,253.281 182.5,253.5C 182.5,252.5 182.5,251.5 182.5,250.5C 174.606,250.473 174.606,249.807 182.5,248.5C 179.517,246.188 176.35,244.188 173,242.5C 173.26,238.098 171.26,235.432 167,234.5C 166.209,233.255 165.709,231.922 165.5,230.5C 168.972,231.532 172.306,232.866 175.5,234.5C 175.295,229.413 177.961,227.413 183.5,228.5C 183.33,227.178 183.663,226.011 184.5,225C 187.666,223.443 191,222.61 194.5,222.5C 194.5,221.5 194.5,220.5 194.5,219.5C 195.791,219.737 196.791,219.404 197.5,218.5C 198.791,217.458 198.791,216.292 197.5,215C 198,214.833 198.5,214.667 199,214.5C 201.724,215.687 204.557,216.353 207.5,216.5 Z"/></g>
<g><path style="opacity:1" fill="#ca01fb" d="M 212.5,223.5 C 217.182,224.703 221.849,224.703 226.5,223.5C 227.386,224.325 227.719,225.325 227.5,226.5C 226.5,226.5 225.5,226.5 224.5,226.5C 224.5,227.833 224.5,229.167 224.5,230.5C 225.675,230.281 226.675,230.614 227.5,231.5C 226.24,232.382 225.074,233.382 224,234.5C 220.379,234.358 216.545,234.358 212.5,234.5C 212.657,235.873 212.49,237.207 212,238.5C 210.951,237.483 209.784,237.316 208.5,238C 209.451,238.718 209.617,239.551 209,240.5C 207.667,241.167 206.333,241.833 205,242.5C 198.915,241.688 192.748,241.188 186.5,241C 185.09,240.632 184.09,239.799 183.5,238.5C 184.502,236.49 185.502,234.49 186.5,232.5C 187.167,232.833 187.833,233.167 188.5,233.5C 189.085,231.135 190.252,229.135 192,227.5C 192.893,228.081 193.893,228.415 195,228.5C 200.387,227.009 205.887,226.176 211.5,226C 212.252,225.329 212.586,224.496 212.5,223.5 Z"/></g>
<g><path style="opacity:1" fill="#bf02f3" d="M 325.5,230.5 C 323.727,235.535 322.06,240.535 320.5,245.5C 318.47,248.063 316.803,250.896 315.5,254C 313.559,254.743 311.726,254.576 310,253.5C 309.481,254.516 308.647,255.182 307.5,255.5C 303.177,255.342 300.511,253.175 299.5,249C 299.755,247.674 300.422,246.674 301.5,246C 300.167,245 298.833,244 297.5,243C 300.22,240.24 299.554,238.406 295.5,237.5C 294.534,235.604 294.201,233.604 294.5,231.5C 293.5,231.5 292.5,231.5 291.5,231.5C 291.262,234.069 289.929,235.735 287.5,236.5C 289.31,233.099 291.31,229.765 293.5,226.5C 294.386,227.325 294.719,228.325 294.5,229.5C 295.5,229.5 296.5,229.5 297.5,229.5C 297.634,227.708 297.301,226.042 296.5,224.5C 297.265,224.077 298.098,223.743 299,223.5C 301.571,224.644 303.738,226.311 305.5,228.5C 306.167,228.167 306.833,227.833 307.5,227.5C 308.738,230.383 310.072,233.217 311.5,236C 313.809,236.006 315.975,236.172 318,236.5C 319.3,235.293 320.8,234.626 322.5,234.5C 322.201,232.396 322.534,230.396 323.5,228.5C 324.182,229.243 324.849,229.909 325.5,230.5 Z"/></g>
<g><path style="opacity:1" fill="#8d15c6" d="M 297.5,216.5 C 296.277,218.872 295.277,221.372 294.5,224C 295.094,224.464 295.761,224.631 296.5,224.5C 297.301,226.042 297.634,227.708 297.5,229.5C 296.5,229.5 295.5,229.5 294.5,229.5C 294.719,228.325 294.386,227.325 293.5,226.5C 291.31,229.765 289.31,233.099 287.5,236.5C 285.804,238.525 284.137,240.525 282.5,242.5C 278.866,244.702 274.866,246.036 270.5,246.5C 265.581,246.263 263.915,243.93 265.5,239.5C 263.231,238.995 261.897,237.662 261.5,235.5C 266.158,238.328 271.158,240.328 276.5,241.5C 278.199,241.66 279.866,241.494 281.5,241C 280.226,240.023 280.226,239.189 281.5,238.5C 281.833,239.833 282.167,239.833 282.5,238.5C 283.496,238.586 284.329,238.252 285,237.5C 287.188,232.291 290.021,227.458 293.5,223C 295.147,220.442 294.813,219.608 292.5,220.5C 292.5,219.167 293.167,218.5 294.5,218.5C 295.5,217.833 296.5,217.167 297.5,216.5 Z"/></g>
<g><path style="opacity:1" fill="#eb01fa" d="M 249.5,245.5 C 251.167,246.167 252.833,246.833 254.5,247.5C 248.463,247.171 242.463,247.504 236.5,248.5C 232.665,249.996 232.665,250.996 236.5,251.5C 236.572,254.522 235.238,256.688 232.5,258C 236.286,259.07 237.953,261.57 237.5,265.5C 239.124,265.64 240.29,264.973 241,263.5C 241.333,263.833 241.667,264.167 242,264.5C 242.226,267.095 242.726,269.595 243.5,272C 241.19,272.497 238.857,272.663 236.5,272.5C 236.5,273.5 236.5,274.5 236.5,275.5C 240.833,275.5 245.167,275.5 249.5,275.5C 249.5,277.167 249.5,278.833 249.5,280.5C 247.901,280.232 246.568,280.566 245.5,281.5C 242.017,280.248 238.351,279.414 234.5,279C 240.604,278.04 240.771,277.206 235,276.5C 232.648,276.305 230.648,276.972 229,278.5C 226.266,277.638 226.099,276.805 228.5,276C 226.108,275.428 224.108,274.262 222.5,272.5C 219.972,273.169 219.972,274.002 222.5,275C 218.888,275.674 215.554,275.174 212.5,273.5C 216.144,272.685 219.811,271.852 223.5,271C 223.957,270.586 224.291,270.086 224.5,269.5C 217.921,266.79 217.921,263.957 224.5,261C 223.643,260.311 222.977,259.478 222.5,258.5C 225.35,254.956 224.35,252.956 219.5,252.5C 213.848,254.819 211.514,253.152 212.5,247.5C 224.816,246.473 237.149,245.806 249.5,245.5 Z"/></g>
<g><path style="opacity:0.482" fill="#90928d" d="M 154.5,243.5 C 158.21,246.953 161.21,250.953 163.5,255.5C 162.883,255.611 162.383,255.944 162,256.5C 160.333,254.833 158.667,253.167 157,251.5C 156.383,250.551 156.549,249.718 157.5,249C 155.859,247.871 154.859,246.371 154.5,244.5C 154.5,244.167 154.5,243.833 154.5,243.5 Z"/></g>
<g><path style="opacity:1" fill="#9e17db" d="M 157.5,224.5 C 159.817,225.82 161.817,227.486 163.5,229.5C 164.167,229.833 164.833,230.167 165.5,230.5C 165.709,231.922 166.209,233.255 167,234.5C 171.26,235.432 173.26,238.098 173,242.5C 176.35,244.188 179.517,246.188 182.5,248.5C 174.606,249.807 174.606,250.473 182.5,250.5C 182.5,251.5 182.5,252.5 182.5,253.5C 181.325,253.281 180.325,253.614 179.5,254.5C 180.994,256.574 182.327,258.74 183.5,261C 182.007,262.156 182.174,262.99 184,263.5C 185,262.833 186,262.167 187,261.5C 191.517,262.632 191.35,263.632 186.5,264.5C 190.205,265.099 193.872,265.432 197.5,265.5C 196.271,266.281 194.938,266.781 193.5,267C 195.859,268.242 197.859,269.742 199.5,271.5C 196.426,270.698 193.426,269.698 190.5,268.5C 187.881,268.075 185.547,267.075 183.5,265.5C 180.807,264.153 178.14,262.82 175.5,261.5C 167.41,256.077 161.077,249.077 156.5,240.5C 157.81,235.08 158.143,229.746 157.5,224.5 Z"/></g>
<g><path style="opacity:1" fill="#d701fa" d="M 249.5,245.5 C 237.149,245.806 224.816,246.473 212.5,247.5C 211.514,253.152 213.848,254.819 219.5,252.5C 224.35,252.956 225.35,254.956 222.5,258.5C 222.977,259.478 223.643,260.311 224.5,261C 217.921,263.957 217.921,266.79 224.5,269.5C 224.291,270.086 223.957,270.586 223.5,271C 219.811,271.852 216.144,272.685 212.5,273.5C 209.579,273.717 206.913,273.051 204.5,271.5C 206.042,270.837 207.709,270.17 209.5,269.5C 207.2,267.219 204.534,265.386 201.5,264C 203.5,263.667 205.5,263.333 207.5,263C 203.717,262.391 202.05,260.224 202.5,256.5C 203.978,256.762 205.311,256.429 206.5,255.5C 206.291,254.914 205.957,254.414 205.5,254C 200.141,252.283 195.141,250.117 190.5,247.5C 190.5,246.5 190.5,245.5 190.5,244.5C 210.334,242.993 230.001,243.326 249.5,245.5 Z"/></g>
<g><path style="opacity:1" fill="#e119f3" d="M 327.5,261.5 C 326.5,263.167 325.167,264.5 323.5,265.5C 320.333,265.6 317.333,264.933 314.5,263.5C 313.145,264.188 312.145,265.188 311.5,266.5C 310.078,266.75 309.078,267.583 308.5,269C 307.251,269.74 306.251,269.573 305.5,268.5C 306.871,266.071 308.371,263.737 310,261.5C 311.011,260.663 312.178,260.33 313.5,260.5C 316.276,256.394 318.61,252.061 320.5,247.5C 320.369,248.376 320.702,249.043 321.5,249.5C 325.387,243.058 329.553,236.724 334,230.5C 334.751,236.14 336.918,236.807 340.5,232.5C 341.76,234.353 341.76,236.186 340.5,238C 341.728,238.779 342.728,239.779 343.5,241C 342.99,242.826 342.156,242.993 341,241.5C 339.441,243.217 338.608,245.217 338.5,247.5C 337.5,247.5 336.5,247.5 335.5,247.5C 334.962,252.229 332.628,255.896 328.5,258.5C 327.614,259.325 327.281,260.325 327.5,261.5 Z"/></g>
<g><path style="opacity:0.071" fill="#494a48" d="M 355.5,238.5 C 353.353,240.47 351.02,242.303 348.5,244C 348.833,244.333 349.167,244.667 349.5,245C 348.034,246.552 347.034,248.386 346.5,250.5C 345.311,251.429 343.978,251.762 342.5,251.5C 340.981,253.61 340.314,255.776 340.5,258C 339.644,259.595 338.311,260.428 336.5,260.5C 336.821,258.952 337.821,258.285 339.5,258.5C 338.185,253.164 340.185,250.497 345.5,250.5C 345.913,244.086 349.246,240.086 355.5,238.5 Z"/></g>
<g><path style="opacity:1" fill="#f302fa" d="M 282.5,244.5 C 283.822,244.33 284.989,244.663 286,245.5C 290.492,252.095 290.659,258.762 286.5,265.5C 287.417,268.758 287.751,272.091 287.5,275.5C 291.509,275.142 295.509,274.642 299.5,274C 301.67,272.202 303.67,270.369 305.5,268.5C 306.251,269.573 307.251,269.74 308.5,269C 309.078,267.583 310.078,266.75 311.5,266.5C 312.073,272.766 309.073,276.6 302.5,278C 299.167,278.333 295.833,278.667 292.5,279C 288.183,279.837 284.183,281.503 280.5,284C 275.925,285.012 271.592,284.512 267.5,282.5C 266.304,282.846 266.304,283.346 267.5,284C 261.509,284.499 255.509,284.666 249.5,284.5C 248.552,283.022 247.219,282.022 245.5,281.5C 246.568,280.566 247.901,280.232 249.5,280.5C 249.5,278.833 249.5,277.167 249.5,275.5C 245.167,275.5 240.833,275.5 236.5,275.5C 236.5,274.5 236.5,273.5 236.5,272.5C 238.857,272.663 241.19,272.497 243.5,272C 242.726,269.595 242.226,267.095 242,264.5C 241.667,264.167 241.333,263.833 241,263.5C 240.29,264.973 239.124,265.64 237.5,265.5C 237.953,261.57 236.286,259.07 232.5,258C 235.238,256.688 236.572,254.522 236.5,251.5C 232.665,250.996 232.665,249.996 236.5,248.5C 242.463,247.504 248.463,247.171 254.5,247.5C 262.174,247.666 269.841,247.5 277.5,247C 278.653,245.117 280.319,244.284 282.5,244.5 Z"/></g>
<g><path style="opacity:1" fill="#fb00fe" d="M 255.5,248.5 C 262.178,248.789 268.844,249.289 275.5,250C 276.292,252.336 277.625,252.836 279.5,251.5C 280.672,251.919 281.672,252.585 282.5,253.5C 279.667,255.833 276.833,258.167 274,260.5C 273.63,263.949 273.797,267.116 274.5,270C 272.251,270.863 270.418,270.363 269,268.5C 266.385,271.07 263.718,271.07 261,268.5C 259.556,270.155 257.722,270.822 255.5,270.5C 255.852,267.572 256.518,264.738 257.5,262C 255.966,261.077 254.299,260.577 252.5,260.5C 249.532,261.162 246.532,261.495 243.5,261.5C 243.335,258.15 243.502,254.817 244,251.5C 244.853,249.875 245.853,249.542 247,250.5C 249.939,249.872 252.772,249.205 255.5,248.5 Z"/></g>
<g><path style="opacity:0.902" fill="#d2c6d2" d="M 372.5,209.5 C 369.306,213.194 366.639,218.528 364.5,225.5C 363.372,226.262 362.205,226.929 361,227.5C 359.581,229.993 358.081,232.326 356.5,234.5C 356.167,233.167 355.833,233.167 355.5,234.5C 354.167,235.167 354.167,235.833 355.5,236.5C 355.5,237.167 355.5,237.833 355.5,238.5C 349.246,240.086 345.913,244.086 345.5,250.5C 340.185,250.497 338.185,253.164 339.5,258.5C 337.821,258.285 336.821,258.952 336.5,260.5C 336.167,260.5 335.833,260.5 335.5,260.5C 335.44,259.957 335.107,259.624 334.5,259.5C 333.155,260.347 332.155,261.513 331.5,263C 326.315,264.354 322.982,267.521 321.5,272.5C 321.056,274.113 320.056,275.28 318.5,276C 318.833,276.333 319.167,276.667 319.5,277C 318.307,278.095 316.973,278.928 315.5,279.5C 315.631,278.624 315.298,277.957 314.5,277.5C 308.524,279.907 302.691,282.574 297,285.5C 290.029,287.521 282.863,288.855 275.5,289.5C 267.352,289.572 259.018,289.239 250.5,288.5C 248.37,287.289 246.37,285.956 244.5,284.5C 246.167,284.5 247.833,284.5 249.5,284.5C 255.389,286.345 261.556,287.345 268,287.5C 286.369,286.383 303.202,280.883 318.5,271C 320.373,269.296 322.04,267.463 323.5,265.5C 325.167,264.5 326.5,263.167 327.5,261.5C 335.505,253.66 343.005,245.327 350,236.5C 354.747,229.934 359.247,223.268 363.5,216.5C 364.272,215.306 365.272,214.306 366.5,213.5C 368.532,212.952 369.532,211.619 369.5,209.5C 370.5,209.5 371.5,209.5 372.5,209.5 Z"/></g>
<g><path style="opacity:0.004" fill="#8e8f8e" d="M 172.5,263.5 C 171.833,264.167 171.833,264.167 172.5,263.5 Z"/></g>
<g><path style="opacity:0.784" fill="#7d7a7b" d="M 164.5,257.5 C 167.895,259.537 171.562,260.87 175.5,261.5C 178.14,262.82 180.807,264.153 183.5,265.5C 183.392,267.514 184.058,269.18 185.5,270.5C 184.883,270.611 184.383,270.944 184,271.5C 181.233,267.208 177.399,264.541 172.5,263.5C 171.811,262.226 170.977,262.226 170,263.5C 167.91,261.584 166.077,259.584 164.5,257.5 Z"/></g>
<g><path style="opacity:1" fill="#e102f9" d="M 320.5,245.5 C 320.5,246.167 320.5,246.833 320.5,247.5C 318.61,252.061 316.276,256.394 313.5,260.5C 312.178,260.33 311.011,260.663 310,261.5C 308.371,263.737 306.871,266.071 305.5,268.5C 303.67,270.369 301.67,272.202 299.5,274C 295.509,274.642 291.509,275.142 287.5,275.5C 287.751,272.091 287.417,268.758 286.5,265.5C 290.659,258.762 290.492,252.095 286,245.5C 284.989,244.663 283.822,244.33 282.5,244.5C 282.5,243.833 282.5,243.167 282.5,242.5C 284.137,240.525 285.804,238.525 287.5,236.5C 289.929,235.735 291.262,234.069 291.5,231.5C 292.5,231.5 293.5,231.5 294.5,231.5C 294.201,233.604 294.534,235.604 295.5,237.5C 299.554,238.406 300.22,240.24 297.5,243C 298.833,244 300.167,245 301.5,246C 300.422,246.674 299.755,247.674 299.5,249C 300.511,253.175 303.177,255.342 307.5,255.5C 308.647,255.182 309.481,254.516 310,253.5C 311.726,254.576 313.559,254.743 315.5,254C 316.803,250.896 318.47,248.063 320.5,245.5 Z"/></g>
<g><path style="opacity:0.553" fill="#4d4b4d" d="M 335.5,260.5 C 334.5,263.997 332.167,265.831 328.5,266C 327.563,269.737 325.229,271.904 321.5,272.5C 322.982,267.521 326.315,264.354 331.5,263C 332.155,261.513 333.155,260.347 334.5,259.5C 335.107,259.624 335.44,259.957 335.5,260.5 Z"/></g>
<g><path style="opacity:0.957" fill="#e2e4df" d="M 183.5,265.5 C 185.547,267.075 187.881,268.075 190.5,268.5C 190.611,269.117 190.944,269.617 191.5,270C 189.527,270.495 187.527,270.662 185.5,270.5C 184.058,269.18 183.392,267.514 183.5,265.5 Z"/></g>
<g><path style="opacity:0.682" fill="#817282" d="M 190.5,268.5 C 193.426,269.698 196.426,270.698 199.5,271.5C 200.167,271.5 200.833,271.5 201.5,271.5C 205.376,273.413 209.376,275.079 213.5,276.5C 213.369,277.239 213.536,277.906 214,278.5C 215.302,279.085 216.469,279.751 217.5,280.5C 214.784,280.322 212.117,279.822 209.5,279C 210.712,277.893 210.379,277.393 208.5,277.5C 207.833,276.167 207.167,276.167 206.5,277.5C 204.621,277.607 204.288,277.107 205.5,276C 198.712,274.086 192.046,272.252 185.5,270.5C 187.527,270.662 189.527,270.495 191.5,270C 190.944,269.617 190.611,269.117 190.5,268.5 Z"/></g>
<g><path style="opacity:1" fill="#ce2ade" d="M 201.5,271.5 C 202.5,271.5 203.5,271.5 204.5,271.5C 206.913,273.051 209.579,273.717 212.5,273.5C 215.554,275.174 218.888,275.674 222.5,275C 219.972,274.002 219.972,273.169 222.5,272.5C 224.108,274.262 226.108,275.428 228.5,276C 226.099,276.805 226.266,277.638 229,278.5C 230.648,276.972 232.648,276.305 235,276.5C 240.771,277.206 240.604,278.04 234.5,279C 238.351,279.414 242.017,280.248 245.5,281.5C 247.219,282.022 248.552,283.022 249.5,284.5C 247.833,284.5 246.167,284.5 244.5,284.5C 234.398,281.39 224.064,278.724 213.5,276.5C 209.376,275.079 205.376,273.413 201.5,271.5 Z"/></g>
<g><path style="opacity:0.004" fill="#b9b9b9" d="M 206.5,277.5 C 207.167,277.5 207.833,277.5 208.5,277.5C 207.833,278.833 207.167,278.833 206.5,277.5 Z"/></g>
<g><path style="opacity:0.659" fill="#aca3aa" d="M 213.5,276.5 C 224.064,278.724 234.398,281.39 244.5,284.5C 240.629,284.185 236.962,284.518 233.5,285.5C 232.167,285.167 230.833,284.833 229.5,284.5C 229.158,283.662 228.492,283.328 227.5,283.5C 224.257,282.51 220.924,281.51 217.5,280.5C 216.469,279.751 215.302,279.085 214,278.5C 213.536,277.906 213.369,277.239 213.5,276.5 Z"/></g>
<g><path style="opacity:1" fill="#dd2ce6" d="M 323.5,265.5 C 322.04,267.463 320.373,269.296 318.5,271C 303.202,280.883 286.369,286.383 268,287.5C 261.556,287.345 255.389,286.345 249.5,284.5C 255.509,284.666 261.509,284.499 267.5,284C 266.304,283.346 266.304,282.846 267.5,282.5C 271.592,284.512 275.925,285.012 280.5,284C 284.183,281.503 288.183,279.837 292.5,279C 295.833,278.667 299.167,278.333 302.5,278C 309.073,276.6 312.073,272.766 311.5,266.5C 312.145,265.188 313.145,264.188 314.5,263.5C 317.333,264.933 320.333,265.6 323.5,265.5 Z"/></g>
<g><path style="opacity:0.004" fill="#939493" d="M 227.5,283.5 C 226.833,284.167 226.833,284.167 227.5,283.5 Z"/></g>
<g><path style="opacity:0.004" fill="#000000" d="M 229.5,284.5 C 228.833,285.167 228.833,285.167 229.5,284.5 Z"/></g>
<g><path style="opacity:0.09" fill="#444544" d="M 244.5,284.5 C 246.37,285.956 248.37,287.289 250.5,288.5C 246.663,288.438 243.163,287.438 240,285.5C 238.333,286.167 236.667,286.833 235,287.5C 234.283,286.956 233.783,286.289 233.5,285.5C 236.962,284.518 240.629,284.185 244.5,284.5 Z"/></g>
<g><path style="opacity:0.188" fill="#3a3b3a" d="M 315.5,279.5 C 311.225,280.961 306.891,282.461 302.5,284C 302.833,284.333 303.167,284.667 303.5,285C 301.956,285.29 300.623,285.956 299.5,287C 291.837,288.043 284.337,289.543 277,291.5C 276.283,290.956 275.783,290.289 275.5,289.5C 282.863,288.855 290.029,287.521 297,285.5C 302.691,282.574 308.524,279.907 314.5,277.5C 315.298,277.957 315.631,278.624 315.5,279.5 Z"/></g>
<g><path style="opacity:0.184" fill="#313330" d="M 250.5,288.5 C 259.018,289.239 267.352,289.572 275.5,289.5C 272.027,289.576 268.694,290.242 265.5,291.5C 260.463,290.718 255.463,289.718 250.5,288.5 Z"/></g>
<g><path style="opacity:0.004" fill="#2a2a2a" d="M 265.5,291.5 C 264.054,292.613 262.387,292.78 260.5,292C 262.134,291.506 263.801,291.34 265.5,291.5 Z"/></g>
</svg>
